<?xml version="1.0" standalone="no"?>
<!DOCTYPE svg PUBLIC "-//W3C//DTD SVG 20010904//EN"
 "http://www.w3.org/TR/2001/REC-SVG-20010904/DTD/svg10.dtd">
<svg version="1.0" xmlns="http://www.w3.org/2000/svg"
 width="1024.000000pt" height="1024.000000pt" viewBox="0 0 1024.000000 1024.000000"
 preserveAspectRatio="xMidYMid meet">

<g transform="translate(0.000000,1024.000000) scale(0.100000,-0.100000)"
fill="#000000" stroke="none">
<path d="M5840 8278 c-210 -239 -349 -352 -680 -549 -69 -41 -195 -116 -280
-167 -230 -138 -331 -213 -476 -357 -273 -272 -393 -534 -394 -866 -1 -288
111 -583 314 -833 l48 -58 -16 -127 c-40 -322 -47 -802 -12 -885 28 -67 110
-94 182 -60 67 32 77 89 48 275 -20 134 -15 273 15 350 63 166 172 249 491
374 729 285 1077 637 1192 1207 21 101 23 141 23 373 0 222 -3 281 -23 402
-54 337 -180 733 -287 903 -55 87 -81 90 -145 18z m47 -491 c96 -302 133 -506
140 -787 8 -293 -25 -494 -112 -677 -91 -194 -267 -384 -481 -518 -109 -69
-224 -124 -414 -200 -148 -59 -304 -133 -352 -166 -29 -21 -43 -24 -33 -9 4 6
24 19 46 30 34 18 38 23 29 40 -9 16 -8 18 5 14 8 -4 15 -1 15 5 0 12 21 11
31 -2 10 -13 97 37 92 53 -4 13 -3 13 5 1 9 -12 15 -12 34 -3 l23 12 -25 -6
c-19 -4 -22 -3 -10 5 8 6 23 8 33 5 11 -3 17 0 17 10 0 8 -9 17 -19 21 -27 8
-32 39 -9 54 10 6 16 17 12 23 -5 7 -3 8 6 3 8 -5 11 -3 8 6 -3 8 -12 13 -21
13 -9 -1 -15 3 -14 10 1 6 -6 10 -15 10 -20 -2 -22 4 -8 26 7 12 10 12 10 1 0
-7 6 -11 14 -8 10 4 13 1 9 -9 -7 -18 4 -18 23 1 9 8 12 20 8 26 -4 8 -3 9 4
5 7 -4 12 -3 12 3 0 6 12 17 28 25 15 8 24 16 20 17 -5 1 -12 3 -18 4 -5 1
-15 3 -21 4 -6 0 -9 8 -5 16 3 9 0 15 -10 15 -10 0 -14 -5 -10 -15 3 -8 9 -21
12 -29 4 -10 -5 -20 -25 -30 -39 -20 -40 -20 -52 7 l-10 22 5 -22 c2 -13 1
-23 -3 -23 -18 0 -8 -47 14 -66 24 -21 24 -34 -1 -34 -8 0 -11 6 -8 15 5 13 2
14 -17 6 -13 -5 -28 -9 -34 -10 -5 -1 -9 -10 -7 -19 2 -14 0 -14 -12 2 -14 17
-14 21 2 33 15 11 14 12 -10 3 -18 -6 -28 -6 -28 0 0 9 29 15 55 11 6 -1 -1 8
-15 19 -21 16 -22 20 -7 20 9 0 23 -11 29 -25 17 -38 23 -31 24 29 1 36 -2 54
-10 52 -6 -2 -8 -1 -3 1 11 7 8 23 -4 21 -6 -2 -14 4 -16 12 -4 12 -3 13 5 1
8 -11 12 -10 20 5 9 16 6 19 -18 20 -24 1 -27 -2 -24 -29 3 -19 -3 -38 -13
-49 -18 -20 -4 -25 15 -6 9 9 12 9 12 -1 0 -7 5 -9 10 -6 6 3 10 -1 10 -9 0
-9 -4 -16 -10 -16 -5 0 -10 4 -10 10 0 5 -10 9 -22 7 -17 -1 -23 3 -22 15 1
10 -2 16 -6 13 -5 -3 -12 0 -16 6 -5 8 1 10 20 7 18 -4 26 -1 26 8 0 8 -3 13
-7 13 -25 -4 -36 3 -16 11 14 6 20 15 17 27 -4 14 0 19 15 19 11 0 17 -5 14
-11 -4 -5 -2 -6 3 -2 5 5 9 14 9 20 1 7 6 11 12 10 6 -1 17 5 24 13 11 13 10
15 -6 12 -12 -2 -20 3 -20 12 0 8 -9 16 -20 18 -25 4 -59 -59 -50 -92 5 -15 4
-17 -3 -7 -13 18 -54 -104 -47 -139 4 -19 4 -21 -3 -6 -6 14 -16 -8 -39 -90
-26 -90 -44 -171 -47 -206 -1 -3 -4 -10 -8 -14 -13 -12 -9 20 12 113 123 524
381 943 892 1443 123 121 128 127 128 167 0 34 -6 46 -31 67 -60 51 -71 45
-282 -157 -302 -289 -458 -470 -598 -692 -86 -137 -179 -327 -240 -493 l-54
-144 -19 24 c-32 38 -103 197 -130 289 -48 166 -58 336 -31 494 61 350 314
608 975 995 212 125 377 236 496 335 49 41 94 74 99 74 6 0 29 -59 52 -132z
m-1067 -1881 c-8 -8 -14 -6 -20 4 -8 12 -10 13 -10 1 0 -8 -3 -12 -6 -9 -3 4
0 16 7 29 11 22 12 22 25 4 10 -13 11 -22 4 -29z m-55 -157 c12 -23 13 -29 2
-29 -20 0 -37 21 -37 48 0 29 15 21 35 -19z m7 -82 c-2 -4 -9 -4 -15 0 -7 4
-6 0 2 -10 7 -9 17 -15 21 -12 5 3 19 1 31 -4 18 -6 27 -4 36 8 15 21 26 9 28
-30 2 -27 0 -29 -14 -15 -14 14 -18 13 -45 -12 -17 -15 -25 -20 -18 -11 6 9 8
20 4 24 -4 5 -1 5 7 0 9 -5 12 -3 9 5 -9 27 -28 21 -34 -9 -5 -22 -11 -30 -25
-28 -10 2 -21 6 -25 9 -3 4 -12 4 -20 1 -10 -4 -12 0 -8 11 4 11 1 16 -10 16
-10 0 -13 6 -9 16 4 12 7 13 14 3 4 -8 11 -10 15 -6 4 3 1 13 -6 21 -6 9 -10
21 -7 28 4 8 6 7 6 -4 1 -9 9 -22 19 -28 12 -8 13 -13 5 -16 -7 -3 -13 -11
-13 -17 0 -8 4 -7 12 1 7 7 21 12 33 12 16 0 14 4 -12 20 -18 11 -33 22 -33
25 0 4 4 4 9 0 15 -8 25 15 12 28 -6 6 -11 15 -11 21 0 5 10 -2 23 -15 13 -13
22 -27 19 -32z m68 -2 c0 -12 -19 -12 -23 0 -4 9 -1 12 9 8 7 -3 14 -7 14 -8z
m-152 -83 c-4 -15 0 -18 18 -16 13 1 22 -1 19 -6 -3 -5 -2 -10 2 -13 5 -2 2
-2 -4 -1 -7 2 -13 -2 -14 -9 0 -9 -2 -9 -6 1 -2 6 -9 12 -15 12 -6 0 -7 -7 -4
-16 6 -15 4 -15 -10 -3 -10 8 -12 15 -5 17 6 2 8 8 5 13 -7 11 2 39 12 39 3 0
4 -8 2 -18z m122 -32 c0 -5 -7 -7 -15 -4 -8 4 -15 1 -15 -7 0 -7 -3 -10 -6 -6
-9 9 5 27 22 27 8 0 14 -4 14 -10z m-110 -61 c0 -6 -4 -7 -10 -4 -5 3 -10 1
-10 -6 0 -7 -3 -10 -6 -6 -10 10 5 39 16 32 5 -3 10 -11 10 -16z"/>
<path d="M5825 7901 c-3 -5 -1 -12 5 -16 5 -3 10 1 10 9 0 18 -6 21 -15 7z"/>
<path d="M5765 7854 c-22 -20 -39 -40 -37 -46 1 -5 -1 -7 -6 -4 -13 8 -53 -24
-46 -36 4 -6 3 -8 -3 -5 -12 8 -79 -41 -75 -54 1 -6 -2 -8 -7 -4 -15 9 -89
-44 -87 -61 1 -8 13 -22 25 -31 22 -15 23 -15 16 7 -5 17 -4 21 5 15 9 -5 11
-4 6 4 -4 6 -11 9 -16 6 -5 -3 -11 -1 -15 5 -3 6 2 13 12 17 10 4 24 13 31 20
10 10 18 10 33 2 12 -6 27 -8 35 -5 8 3 14 1 14 -4 0 -6 5 -10 10 -10 18 0 10
22 -10 27 -30 8 -14 23 20 19 30 -3 40 7 20 19 -6 4 -7 12 -3 18 4 7 8 15 8
19 0 3 4 10 9 15 5 4 7 3 3 -2 -9 -16 9 -39 23 -30 9 6 9 9 -1 16 -10 6 -11 9
-1 9 6 0 12 10 12 23 0 17 2 19 10 7 5 -9 5 -19 -1 -26 -6 -7 -1 -20 15 -37
14 -15 20 -29 15 -32 -5 -4 -9 0 -9 7 0 8 -5 6 -11 -5 -6 -10 -8 -21 -5 -24 3
-4 6 -1 6 7 0 9 3 10 13 2 9 -8 16 -6 25 8 10 16 8 22 -15 40 -14 11 -24 23
-21 26 3 3 13 -2 21 -11 19 -19 34 -20 18 -1 -8 10 -9 16 -1 21 5 3 11 -2 12
-12 0 -10 2 -25 3 -33 1 -8 -3 -21 -9 -28 -7 -9 -6 -16 3 -21 7 -5 12 -11 12
-15 -3 -19 0 -26 10 -26 6 0 7 5 2 13 -14 22 -13 42 4 55 9 6 12 12 5 12 -9 0
-9 6 0 25 10 22 9 29 -10 45 -12 11 -17 15 -12 8 6 -7 10 -19 10 -27 0 -11 -5
-8 -16 7 -10 15 -22 21 -34 17 -19 -6 -36 20 -20 30 6 4 10 2 10 -3 0 -5 7 -9
16 -9 10 0 14 7 11 19 -3 10 -1 21 4 24 5 3 9 -4 9 -15 0 -12 4 -21 10 -21 5
0 7 7 4 15 -5 11 -2 13 10 9 21 -8 20 5 -1 22 -24 18 -22 18 -68 -22z m30 -64
c-3 -5 -11 -10 -16 -10 -6 0 -7 5 -4 10 3 6 11 10 16 10 6 0 7 -4 4 -10z
m-155 -65 c-7 -8 -17 -15 -23 -15 -6 0 -2 8 9 19 22 21 33 19 14 -4z"/>
<path d="M5840 7825 c0 -8 5 -15 12 -15 6 0 8 -3 5 -7 -4 -3 -2 -13 5 -20 9
-11 9 -16 -2 -23 -8 -5 -10 -15 -5 -26 7 -18 8 -18 16 1 8 17 8 16 4 -6 -3
-18 0 -29 10 -33 19 -7 19 -7 -6 75 -19 63 -39 91 -39 54z"/>
<path d="M5698 7738 c7 -9 11 -21 10 -28 -2 -7 5 -14 15 -15 9 -2 17 1 17 6 0
5 -4 9 -10 9 -5 0 -10 4 -10 10 0 5 7 7 15 4 8 -4 15 -2 15 3 0 5 -6 10 -12
10 -7 0 -22 4 -33 9 -17 7 -18 6 -7 -8z"/>
<path d="M5670 7702 c0 -4 5 -13 12 -20 7 -7 8 -12 3 -12 -6 0 -3 -5 5 -10 13
-8 12 -10 -5 -11 -11 -1 -23 -1 -26 -1 -4 1 -5 -8 -2 -18 3 -11 14 -20 25 -20
10 0 16 5 13 10 -4 6 -11 8 -16 5 -5 -4 -9 -2 -9 4 0 14 30 19 63 10 15 -4 27
-4 27 2 0 5 -4 9 -10 9 -5 0 -10 7 -10 15 0 8 -4 15 -10 15 -5 0 -10 -8 -10
-17 0 -11 -7 -5 -16 15 -15 29 -34 43 -34 24z"/>
<path d="M5845 7688 c5 -24 15 -37 15 -18 0 9 3 10 13 1 8 -6 16 -10 18 -8 2
1 -3 -4 -11 -12 -13 -12 -12 -13 6 -9 13 4 21 0 21 -9 0 -9 -7 -11 -21 -7 -12
4 -18 3 -14 -1 4 -5 3 -14 -3 -22 -9 -9 -8 -13 0 -13 6 0 11 5 11 10 0 6 5 10
11 10 5 0 8 -4 4 -9 -3 -5 -1 -12 5 -16 5 -3 10 2 11 12 0 16 1 16 9 -2 12
-28 12 -11 -1 39 -8 34 -18 46 -44 59 -33 16 -34 15 -30 -5z"/>
<path d="M5750 7671 c0 -5 6 -14 14 -20 14 -12 11 -46 -5 -67 -5 -6 -10 -20
-12 -32 -7 -44 -21 -38 -18 8 0 10 -1 11 -5 2 -3 -6 -10 -10 -15 -6 -5 3 -9 1
-9 -5 0 -5 5 -13 12 -17 8 -5 6 -11 -6 -20 -11 -8 -13 -14 -7 -19 6 -3 11 -1
11 4 0 6 6 11 14 11 8 0 22 7 31 17 14 14 18 14 26 2 11 -18 11 -29 0 -29 -6
0 -9 -8 -8 -18 1 -21 27 -22 51 -3 9 8 16 10 16 7 0 -4 9 -2 19 4 15 8 24 6
37 -8 17 -16 18 -16 11 2 -6 16 -5 17 8 6 12 -10 13 -15 4 -20 -8 -6 -8 -9 2
-13 8 -3 9 -6 3 -6 -6 -1 -17 6 -24 14 -7 8 -16 15 -21 15 -5 0 -6 -7 -3 -15
4 -8 1 -15 -5 -15 -6 0 -11 8 -11 18 -1 15 -2 15 -13 2 -7 -9 -22 -15 -34 -14
-12 1 -24 -5 -27 -12 -3 -8 0 -13 7 -11 14 2 10 -35 -4 -44 -5 -3 -11 -19 -13
-36 -3 -26 0 -31 15 -30 19 1 27 17 9 17 -5 0 -10 10 -10 22 0 19 3 17 19 -12
16 -29 24 -35 47 -32 20 2 25 0 16 -6 -11 -7 -10 -10 3 -16 23 -8 27 -8 20 4
-4 6 1 7 11 3 15 -6 15 -7 -2 -20 -19 -14 -19 -14 0 -11 10 2 21 -3 24 -11 3
-8 0 -11 -7 -7 -7 5 -9 1 -4 -10 4 -12 2 -15 -8 -12 -8 3 -13 10 -12 15 1 5
-8 9 -20 9 -15 -1 -23 6 -25 21 -4 28 -60 50 -69 28 -3 -8 -11 -15 -19 -15 -8
0 -11 -6 -8 -15 4 -8 12 -15 20 -15 8 0 23 -9 33 -19 11 -11 22 -17 25 -13 3
3 6 0 6 -6 0 -6 9 -16 19 -21 15 -8 20 -7 25 5 5 12 2 15 -13 11 -13 -3 -21 1
-24 13 -4 16 -2 16 42 -1 25 -10 45 -23 43 -29 -1 -7 5 -9 18 -5 14 5 20 2 20
-9 0 -9 7 -16 15 -16 8 0 15 -4 15 -10 0 -14 -11 -12 -31 6 -10 9 -30 17 -44
17 -20 0 -23 2 -14 13 9 11 8 14 -4 14 -27 0 -29 -29 -2 -36 27 -7 32 -23 13
-43 -11 -10 -9 -11 6 -5 18 7 18 6 1 -19 -10 -15 -22 -24 -31 -20 -8 3 -14 0
-14 -6 0 -6 7 -11 15 -11 8 0 15 -5 15 -11 0 -5 -5 -7 -12 -3 -6 4 -8 3 -4 -4
3 -6 2 -13 -4 -17 -13 -8 -3 -25 15 -25 8 0 12 6 9 15 -9 22 5 38 22 24 11 -9
14 -9 14 0 0 7 5 9 10 6 6 -3 10 -1 10 4 0 11 -13 15 -37 12 -17 -2 -16 2 6
28 12 13 22 18 26 11 3 -5 1 -10 -6 -10 -10 0 -10 -3 -2 -11 6 -6 16 -8 22 -5
15 10 -5 46 -24 46 -8 0 -15 7 -15 15 0 8 5 15 11 15 5 0 7 -5 3 -12 -5 -8 -2
-9 9 -5 10 3 17 2 17 -4 0 -6 4 -7 10 -4 6 4 8 -6 6 -24 -2 -17 -1 -32 3 -34
3 -2 0 -2 -6 -1 -7 2 -13 -1 -13 -6 0 -6 7 -10 16 -10 28 0 12 -42 -20 -53
-28 -9 -52 5 -40 25 3 4 0 8 -6 8 -7 0 -10 -7 -7 -15 4 -8 2 -17 -4 -21 -12
-7 -59 4 -58 14 2 15 -14 52 -23 52 -5 0 -6 4 -3 10 3 5 0 8 -7 5 -9 -4 -14 5
-15 26 -2 30 -1 31 11 13 8 -10 18 -16 22 -11 4 4 2 7 -6 7 -10 0 -10 3 0 15
12 14 9 15 -21 10 -42 -8 -46 -12 -31 -35 11 -18 10 -19 -13 -8 -27 12 -32 27
-13 46 9 9 8 12 -7 12 -10 0 -15 -3 -12 -7 4 -3 2 -12 -5 -20 -8 -11 -7 -17 8
-28 12 -9 14 -14 6 -15 -10 0 -10 -5 -2 -21 11 -19 10 -20 -10 -9 -16 9 -19
15 -10 25 8 9 8 15 0 20 -5 3 -10 0 -10 -7 0 -10 -2 -10 -9 1 -5 8 -11 9 -15
3 -3 -6 -2 -14 4 -17 15 -9 -9 -38 -26 -31 -7 3 -15 0 -18 -7 -3 -8 -5 -8 -5
1 -1 8 8 16 20 19 13 4 18 11 14 21 -6 17 13 44 26 36 5 -3 9 -2 10 3 0 4 2
15 4 23 1 8 -3 21 -10 27 -10 10 -16 9 -26 -3 -10 -12 -9 -13 4 -8 12 4 14 1
10 -15 -7 -27 -17 -27 -31 2 -11 22 -11 21 -6 -3 9 -44 -11 -74 -121 -181
-137 -135 -301 -318 -297 -332 2 -7 0 -9 -4 -5 -8 9 -34 -10 -34 -24 0 -6 7
-5 15 2 13 10 15 9 15 -8 0 -12 -4 -24 -10 -27 -12 -7 -14 -55 -2 -55 4 0 14
5 22 11 13 9 12 10 -2 5 -21 -6 -22 1 -4 33 8 14 12 31 9 38 -3 7 0 13 6 13 6
0 11 -5 11 -12 0 -6 7 -3 15 8 14 18 16 18 26 2 5 -10 20 -18 32 -17 12 0 16
3 9 6 -6 2 -10 9 -6 14 3 5 1 9 -5 9 -5 0 -12 -6 -15 -12 -3 -7 -3 -3 -1 8 4
14 0 24 -10 28 -8 3 -15 1 -15 -4 0 -6 -5 -10 -11 -10 -5 0 -7 5 -3 12 4 7 3
8 -5 4 -6 -4 -9 -12 -6 -17 4 -5 1 -9 -4 -9 -6 0 -11 6 -11 14 0 18 25 38 35
28 5 -4 5 -1 1 6 -4 7 -1 12 9 12 9 0 13 5 10 10 -3 6 -1 10 5 10 6 0 8 5 4
13 -5 8 -2 8 9 -2 9 -7 17 -16 17 -19 0 -3 -3 -2 -7 1 -3 4 -12 -1 -19 -11
-20 -25 -17 -38 4 -19 10 10 22 14 25 10 4 -3 7 3 7 15 0 24 15 37 25 22 4 -6
10 -8 15 -5 4 3 11 -2 14 -11 4 -9 13 -14 21 -10 20 7 19 -4 -2 -20 -10 -7
-14 -16 -10 -20 4 -5 12 -2 18 6 7 12 9 10 7 -7 -2 -12 0 -21 4 -20 4 1 14 -7
22 -18 9 -11 16 -16 16 -11 0 11 30 -14 30 -25 0 -5 -8 -6 -17 -3 -15 5 -15 4
-3 -4 8 -6 18 -8 22 -6 4 3 5 -2 2 -10 -5 -14 -9 -13 -30 0 -13 9 -21 21 -17
27 4 6 1 7 -7 2 -10 -6 -12 -4 -7 8 4 10 2 17 -5 17 -6 0 -8 -11 -5 -28 5 -23
2 -28 -11 -27 -29 2 -40 14 -34 37 3 14 2 19 -6 14 -11 -7 -17 6 -13 27 1 5
-3 6 -8 3 -5 -3 -11 1 -15 9 -3 8 -13 15 -23 15 -16 -1 -16 -2 -3 -13 8 -7 26
-25 40 -41 l25 -28 -37 4 c-20 2 -35 1 -33 -2 1 -3 -3 -11 -11 -18 -12 -11
-14 -10 -14 3 0 9 -5 13 -10 10 -6 -4 -8 -11 -5 -16 4 -5 0 -11 -7 -14 -8 -3
-14 -14 -15 -25 -2 -18 1 -17 23 5 14 14 32 25 40 25 8 0 13 4 10 9 -3 5 6 9
19 9 l25 0 -21 -19 c-12 -11 -28 -19 -35 -19 -7 0 -15 -4 -18 -9 -4 -5 9 -6
29 -1 23 5 35 4 35 -3 0 -6 3 -7 8 -3 4 4 7 13 7 18 0 6 7 13 15 15 13 4 13 3
0 -6 -13 -10 -13 -11 0 -11 12 0 12 -2 2 -9 -8 -4 -14 -12 -15 -17 -1 -5 -7
-8 -13 -6 -8 1 -11 -6 -8 -20 4 -21 4 -21 -5 -3 -4 11 -6 24 -4 28 3 5 -8 7
-23 5 -26 -3 -29 -7 -28 -35 2 -25 -1 -30 -15 -26 -13 5 -14 3 -4 -7 17 -19
41 3 37 35 -3 33 0 32 25 -10 13 -22 28 -35 41 -35 11 0 21 -6 22 -12 0 -7 2
-17 3 -23 2 -5 3 -18 4 -27 0 -10 9 -22 19 -27 14 -8 18 -6 19 10 1 10 -2 19
-7 19 -4 0 -11 7 -14 16 -6 15 -4 15 16 2 26 -18 32 -36 18 -58 -8 -12 -13
-13 -29 -3 -16 10 -20 9 -25 -3 -9 -24 -7 -27 8 -15 10 9 16 8 26 -4 15 -18
30 -11 30 16 0 10 5 19 11 19 5 0 7 -5 3 -12 -4 -6 -3 -8 3 -5 6 4 18 -2 28
-13 15 -17 16 -23 5 -33 -8 -7 -11 -8 -7 -1 4 7 -1 18 -10 25 -12 10 -14 10
-9 2 5 -9 1 -13 -12 -13 -14 0 -19 -6 -17 -24 2 -14 6 -30 10 -35 8 -14 32
-14 41 1 5 7 3 8 -6 3 -13 -8 -30 10 -30 34 0 10 6 8 20 -7 12 -12 27 -22 35
-22 8 0 16 -4 19 -9 4 -5 -3 -7 -14 -4 -15 4 -20 0 -20 -16 0 -11 5 -21 11
-21 5 0 7 5 3 12 -5 7 -2 9 8 6 8 -4 20 -3 27 2 17 10 -8 52 -26 45 -10 -3
-10 0 -1 15 11 16 9 23 -10 40 -23 21 -29 54 -13 65 5 3 13 0 17 -6 4 -8 3 -9
-4 -5 -18 11 -15 -19 3 -34 13 -11 14 -10 10 3 -4 8 -1 18 5 22 8 5 8 11 -1
21 -9 11 -8 14 5 14 14 0 16 -6 11 -32 -7 -37 -7 -79 0 -86 2 -2 11 3 20 12 9
9 24 16 33 16 13 0 13 2 -4 14 -17 13 -20 13 -25 -2 -3 -10 -8 -12 -12 -5 -4
6 0 16 8 23 15 13 21 35 8 27 -5 -3 -8 5 -8 18 0 13 3 21 8 18 4 -2 7 1 7 6 0
6 -4 11 -10 11 -5 0 -10 7 -10 16 0 8 -4 13 -10 9 -5 -3 -6 -13 -3 -22 4 -11
3 -14 -6 -9 -7 5 -10 14 -7 22 7 17 -13 29 -26 16 -6 -6 -17 -8 -26 -5 -11 5
-13 3 -7 -7 5 -8 4 -11 -3 -6 -6 3 -9 18 -6 32 3 14 1 23 -4 20 -4 -2 -9 5 -9
17 -2 20 0 20 24 -7 29 -34 68 -42 83 -18 8 14 10 14 11 2 1 -8 1 -18 1 -21
-1 -4 6 -6 16 -5 9 0 16 -5 15 -11 -2 -7 2 -13 7 -13 6 0 10 9 10 20 0 18 -11
25 -33 21 -5 -1 -6 3 -2 9 3 6 11 8 16 5 5 -3 6 1 3 9 -3 9 -10 16 -16 16 -5
0 -6 -5 -3 -10 7 -11 -24 -8 -57 5 -12 5 -18 2 -18 -6 -1 -9 -9 -4 -21 10 -22
27 -19 37 8 27 15 -6 15 -8 3 -16 -8 -6 -10 -10 -4 -10 5 0 15 5 22 12 9 9 12
9 12 0 0 -7 9 -12 20 -12 11 0 20 5 20 10 0 10 -9 13 -42 13 -25 0 -22 14 4
20 14 4 27 0 37 -12 9 -10 21 -16 27 -14 6 2 15 -11 18 -29 7 -30 8 -31 16
-12 10 26 40 40 40 18 0 -8 -4 -13 -9 -9 -5 3 -12 1 -16 -5 -3 -5 -1 -10 5
-10 6 0 8 -5 5 -10 -4 -6 -11 -8 -16 -5 -5 4 -9 -1 -9 -10 0 -12 6 -15 23 -10
15 4 18 3 9 -3 -11 -7 -11 -10 2 -15 10 -4 16 -1 16 8 0 8 4 15 9 15 4 0 6
-11 3 -25 -4 -25 -5 -25 -34 -7 -28 16 -30 16 -42 0 -7 -10 -18 -18 -25 -18
-16 0 -14 -15 4 -30 9 -8 15 -8 15 -2 0 6 -3 12 -7 15 -5 2 -3 2 4 1 7 -2 15
6 19 18 3 11 9 17 13 12 6 -9 27 -16 49 -17 8 0 9 -4 3 -10 -7 -7 -15 -6 -25
3 -13 10 -17 9 -22 -4 -3 -9 -10 -13 -15 -10 -5 3 -9 0 -9 -6 0 -8 11 -9 31
-5 24 6 30 4 27 -6 -3 -8 -11 -14 -19 -14 -8 -1 -13 -7 -11 -14 1 -7 -2 -10
-7 -7 -13 8 -23 -23 -13 -40 6 -12 12 -10 30 11 12 14 17 25 11 25 -6 0 -1 8
11 18 12 10 23 30 23 44 2 21 5 24 15 15 10 -8 15 -8 20 0 4 6 19 14 33 18 18
4 25 12 23 23 -5 19 56 55 73 44 16 -11 21 -36 11 -54 -12 -24 -23 -23 -48 4
-11 12 -23 18 -27 13 -5 -4 -2 -10 5 -12 6 -3 9 -9 6 -14 -3 -6 2 -21 10 -34
10 -15 12 -25 6 -25 -6 0 -9 -4 -5 -10 3 -5 13 -6 23 -3 16 6 16 6 0 -11 -18
-17 -22 -31 -18 -51 1 -5 -2 -7 -6 -3 -4 4 -12 0 -19 -9 -10 -14 -12 -13 -10
7 1 12 9 26 18 32 19 10 23 28 6 28 -5 0 -7 -4 -4 -10 6 -9 -8 -14 -27 -11 -5
0 -8 -10 -8 -22 0 -13 -8 -34 -19 -45 -18 -22 -32 -28 -30 -14 4 24 -5 19 -36
-17 -21 -27 -32 -48 -28 -58 5 -12 3 -14 -8 -7 -8 4 -24 7 -36 5 -17 -2 -21 2
-17 13 3 8 13 17 21 20 13 5 14 4 4 -8 -10 -12 -9 -14 8 -9 20 5 19 30 -2 44
-5 4 -5 9 2 13 6 4 11 2 11 -4 0 -6 5 -8 11 -5 6 4 8 13 5 21 -3 7 2 17 11 22
8 5 14 15 12 21 -3 8 -12 6 -28 -8 -13 -12 -21 -21 -17 -21 4 0 0 -7 -8 -16
-9 -8 -16 -22 -16 -30 0 -17 -14 -18 -43 -3 -22 12 -22 12 -4 -9 11 -11 16
-26 12 -31 -3 -6 -1 -11 4 -11 6 0 11 -5 11 -11 0 -5 -4 -7 -10 -4 -5 3 -10 2
-10 -4 0 -18 19 -22 28 -5 6 11 16 15 26 11 10 -4 15 -11 11 -16 -3 -5 -1 -12
4 -16 17 -10 0 -37 -20 -32 -21 6 -36 -38 -19 -58 7 -9 6 -16 -5 -25 -13 -10
-15 -9 -16 11 0 22 -1 23 -8 4 -5 -11 -7 -23 -5 -27 2 -3 -10 -17 -28 -29 -19
-14 -28 -16 -20 -7 10 12 10 18 1 23 -8 6 -8 10 2 16 7 4 11 11 7 14 -3 4 -18
-1 -33 -11 -21 -14 -26 -24 -23 -46 3 -18 1 -25 -5 -19 -5 5 -10 20 -11 32 0
12 -8 25 -16 27 -13 4 -13 3 -2 -11 11 -13 10 -19 -6 -35 -11 -11 -18 -23 -15
-26 3 -3 -6 -3 -21 0 -14 2 -26 0 -26 -6 0 -5 5 -10 10 -10 6 0 1 -9 -10 -20
-20 -20 -28 -46 -11 -35 5 3 13 0 17 -6 4 -8 3 -9 -4 -5 -7 4 -12 2 -12 -4 0
-6 -4 -9 -9 -6 -5 4 -11 3 -14 -1 -2 -5 -2 -2 0 6 4 17 -26 53 -38 45 -5 -3
-6 1 -4 8 6 16 -46 19 -56 4 -4 -5 -10 1 -14 14 -4 12 -2 27 4 33 11 11 -13
47 -32 47 -6 0 -2 -10 9 -22 10 -12 13 -18 6 -14 -9 6 -11 1 -8 -18 2 -13 0
-26 -6 -28 -16 -6 -19 -41 -5 -50 9 -6 9 -8 -1 -8 -7 0 -10 -5 -7 -10 4 -6 10
-8 15 -5 4 3 5 -5 2 -17 -5 -19 -7 -20 -10 -5 -2 9 -8 17 -13 17 -5 0 -9 -8
-10 -17 0 -10 -5 -3 -10 15 -8 28 -12 32 -25 21 -12 -10 -13 -9 -8 7 4 10 11
24 16 31 7 8 4 11 -10 10 -10 0 -19 -6 -19 -12 0 -35 -4 -57 -10 -51 -5 4 -8
13 -8 19 0 5 -6 12 -13 15 -18 6 -10 -19 13 -40 18 -16 17 -18 -12 -18 -5 0
-8 5 -8 12 0 6 -6 13 -14 16 -10 3 -12 0 -8 -12 4 -9 2 -16 -3 -16 -13 0 -24
21 -14 29 14 10 17 71 4 71 -7 0 -10 -6 -7 -13 3 -8 -1 -14 -8 -14 -8 0 -13 3
-12 6 1 3 -2 7 -8 8 -5 1 -9 -4 -7 -12 1 -7 -5 -16 -14 -19 -22 -9 -32 3 -14
14 11 7 12 10 2 10 -7 0 -10 5 -6 12 4 7 3 8 -5 4 -6 -4 -9 -12 -6 -17 4 -5
-2 -9 -13 -9 -10 0 -19 -6 -19 -14 0 -13 25 -15 81 -4 10 1 21 -2 23 -8 2 -7
-6 -10 -21 -9 -28 3 -65 -19 -53 -31 4 -5 12 -2 16 5 5 7 14 10 20 7 6 -4 11
-2 11 4 0 7 7 5 16 -5 9 -8 13 -22 10 -30 -7 -19 1 -19 21 0 11 11 19 13 27 5
7 -5 17 -6 21 -2 5 4 5 1 1 -5 -9 -16 6 -17 22 -1 9 9 12 8 12 -6 0 -12 -7
-17 -22 -15 -13 2 -29 0 -35 -4 -9 -6 -11 -3 -7 7 3 9 1 16 -5 16 -20 0 -12
-45 10 -55 24 -11 26 -32 2 -27 -10 2 -12 -1 -7 -10 4 -7 4 -10 -1 -6 -4 4
-13 1 -21 -7 -15 -14 -88 -15 -101 0 -4 4 -2 5 5 1 8 -5 12 0 12 13 0 15 4 19
18 14 16 -6 16 -5 0 13 -9 10 -17 24 -17 29 -1 6 -6 10 -13 10 -6 0 -13 6 -16
14 -3 9 1 11 17 6 12 -4 21 -2 21 4 0 6 -7 11 -15 11 -8 0 -15 6 -15 13 -1 16
-60 -53 -60 -70 0 -7 4 -13 10 -13 5 0 6 8 3 18 -6 15 -5 16 12 2 10 -8 26
-14 37 -12 10 2 18 -1 18 -5 0 -5 -8 -10 -17 -11 -51 -5 -68 -14 -83 -42 -9
-17 -8 -19 7 -13 16 6 16 5 4 -10 -7 -9 -9 -17 -3 -17 5 0 12 7 16 15 3 8 10
15 17 15 6 0 9 -7 5 -15 -3 -8 -1 -15 5 -15 6 0 7 -5 4 -10 -4 -6 -11 -8 -16
-5 -5 4 -9 1 -9 -4 0 -15 -6 -17 121 35 181 72 287 126 396 198 116 77 281
225 263 236 -8 5 -5 9 8 12 26 7 121 136 165 223 19 39 44 101 57 139 19 57
20 70 9 77 -11 7 -11 9 3 9 20 0 36 76 19 93 -14 14 -14 27 0 27 5 0 7 -4 4
-10 -3 -5 -2 -10 4 -10 5 0 10 8 10 18 -1 9 3 46 8 82 12 98 9 403 -6 505 -12
89 -32 196 -52 287 l-11 46 -28 -31 c-16 -18 -32 -28 -36 -24 -5 4 -2 12 5 16
7 5 10 14 7 20 -14 21 -26 11 -22 -19 2 -21 -1 -30 -11 -30 -9 0 -11 5 -7 13
6 9 5 9 -8 0 -8 -7 -19 -9 -23 -5 -5 4 -5 2 -1 -5 3 -6 2 -15 -4 -18 -7 -4
-10 2 -8 17 5 36 18 51 32 39 9 -8 13 -7 13 4 0 9 -10 13 -28 12 -15 -1 -25
-6 -21 -11 3 -5 -2 -6 -12 -3 -10 4 -20 7 -22 7 -2 0 -4 5 -4 11 0 5 4 8 9 4
5 -3 13 -1 16 5 5 8 11 7 21 -1 11 -9 14 -9 14 0 0 7 5 9 10 6 6 -3 14 4 19
17 10 27 4 43 -12 30 -20 -16 -54 -20 -54 -7 0 7 11 11 24 9 29 -3 29 3 -3 32
-25 24 -54 32 -54 15z m45 -21 c3 -6 -1 -7 -9 -4 -18 7 -21 14 -7 14 6 0 13
-4 16 -10z m31 -59 c-3 -5 -17 -8 -32 -8 -18 0 -22 2 -13 8 18 11 52 11 45 0z
m111 -63 c-2 -7 0 -22 5 -33 8 -17 7 -18 -4 -4 -7 9 -21 15 -31 13 -15 -2 -16
0 -6 12 6 7 15 11 20 8 5 -3 9 0 9 5 0 6 3 11 6 11 3 0 4 -6 1 -12z m-104 -99
c5 -20 27 -18 27 2 0 6 -4 7 -10 4 -5 -3 -10 -2 -10 3 0 5 14 9 30 9 17 0 30
-4 30 -9 0 -5 4 -7 9 -4 11 7 8 -21 -4 -31 -4 -4 -5 -3 -1 4 3 6 2 14 -4 18
-5 3 -11 0 -11 -7 -8 -86 -8 -87 12 -67 24 24 58 27 39 4 -7 -8 -16 -12 -21
-9 -5 3 -9 -2 -9 -10 0 -18 28 -10 48 13 11 14 12 13 3 -5 -6 -12 -7 -25 -3
-29 4 -5 -1 -5 -10 -2 -15 5 -16 4 -5 -13 6 -11 17 -18 24 -16 21 9 33 -57 12
-70 -6 -3 -15 0 -20 7 -7 11 -9 11 -9 1 0 -7 -5 -10 -11 -6 -8 4 -7 9 2 15 9
5 10 9 2 9 -6 0 -9 9 -6 20 9 34 -49 78 -93 72 -6 -1 -16 9 -22 23 -15 32 -15
38 0 29 7 -5 8 -3 3 7 -12 18 -15 59 -5 59 4 0 10 -9 13 -21z m118 -16 c8 -10
9 -14 2 -10 -6 4 -14 3 -18 -3 -3 -5 1 -10 9 -10 8 0 17 -3 19 -7 4 -6 -34 -8
-63 -4 -2 1 6 8 18 17 12 8 20 20 17 25 -10 15 2 10 16 -8z m-121 -133 c10
-16 2 -42 -11 -34 -5 3 -9 10 -9 15 0 6 5 7 12 3 6 -4 8 -3 5 4 -4 5 -17 8
-30 6 -12 -2 -16 -2 -9 2 6 3 10 9 7 14 -3 5 2 7 11 6 8 -1 19 -8 24 -16z
m170 -90 c0 -5 -2 -10 -4 -10 -3 0 -8 5 -11 10 -3 6 -1 10 4 10 6 0 11 -4 11
-10z m-204 -133 c13 -20 27 -31 40 -30 10 1 13 0 7 -3 -17 -8 -17 -25 0 -18 8
3 20 -2 27 -10 8 -10 21 -14 36 -10 23 6 60 -17 47 -30 -12 -11 -23 -6 -23 10
0 14 -2 15 -16 3 -15 -12 -14 -15 15 -23 17 -5 31 -13 31 -18 0 -5 -4 -6 -10
-3 -5 3 -10 1 -10 -4 0 -6 -4 -11 -10 -11 -5 0 -10 7 -10 15 0 8 -4 15 -10 15
-6 0 -5 -10 2 -25 6 -13 15 -22 19 -19 5 3 9 0 9 -6 0 -7 -8 -9 -19 -5 -11 3
-22 1 -26 -5 -3 -5 1 -10 9 -10 9 0 16 -7 16 -16 0 -8 5 -12 10 -9 6 4 8 10 5
15 -6 10 19 20 51 20 15 0 24 -6 24 -16 0 -13 -3 -14 -15 -4 -8 7 -22 9 -31 6
-14 -5 -14 -8 0 -21 8 -9 22 -12 32 -8 14 5 16 3 10 -13 -5 -10 -9 -36 -9 -56
-1 -21 -4 -38 -8 -38 -14 0 -17 14 -8 37 7 20 6 24 -4 20 -8 -3 -14 1 -14 8 0
7 6 11 14 8 7 -3 13 -1 13 5 0 19 -30 21 -39 3 -7 -13 -6 -24 5 -39 10 -14 11
-22 4 -22 -6 0 -9 -4 -6 -9 3 -5 0 -9 -7 -8 -36 1 -52 -4 -38 -12 7 -5 9 -10
5 -13 -5 -2 -20 7 -34 20 -22 21 -22 23 -4 14 12 -6 25 -8 29 -4 6 7 10 8 38
11 9 1 9 3 -1 10 -8 4 -14 12 -15 17 -1 5 -6 8 -12 6 -5 -1 -2 4 7 11 10 8 15
17 11 20 -3 4 -1 7 5 7 7 0 12 4 12 9 0 15 -39 9 -45 -7 -2 -7 0 -10 5 -7 14
9 12 -4 -3 -19 -7 -7 -19 -11 -27 -9 -9 3 -8 0 3 -7 10 -7 24 -9 31 -7 7 3 13
-1 13 -7 0 -8 -10 -11 -24 -9 -12 1 -34 5 -48 7 -14 2 -30 -3 -37 -12 -11 -13
-10 -15 4 -9 12 4 23 -1 33 -16 8 -12 19 -21 22 -19 4 2 9 -1 11 -6 2 -6 -8
-9 -22 -8 -13 0 -24 3 -24 6 2 27 -4 39 -17 34 -14 -6 -13 -8 2 -20 17 -13 17
-13 0 -14 -10 0 -20 7 -23 15 -6 16 -54 17 -54 1 0 -18 -14 4 -15 24 -3 32 23
47 43 26 16 -17 16 -18 -8 -12 -21 6 -22 5 -7 -4 21 -14 44 -3 28 13 -15 15
-14 32 2 19 19 -15 62 -8 65 12 4 16 2 16 -27 1 -36 -18 -43 -3 -15 31 8 10
13 14 10 7 -9 -17 15 -28 25 -12 5 8 9 9 9 3 0 -7 7 -14 15 -18 11 -4 15 2 15
20 0 21 -4 24 -20 19 -10 -3 -28 -1 -40 5 -14 7 -20 8 -20 0 0 -7 -6 -8 -19 0
-26 14 -31 13 -31 -6 0 -8 5 -12 10 -9 6 4 10 3 9 -2 -3 -20 2 -27 11 -13 5 8
10 10 10 4 0 -22 -27 -36 -49 -25 -27 15 -44 14 -34 -1 12 -21 12 -69 -1 -65
-6 2 -11 10 -11 18 -1 8 -6 13 -12 12 -6 -1 -14 4 -17 12 -4 12 0 14 22 8 25
-6 26 -5 13 11 -12 14 -12 19 -2 25 9 6 3 12 -19 19 -17 7 -29 16 -25 22 4 6
13 5 25 -2 16 -10 22 -10 32 1 11 11 10 13 -2 7 -9 -5 -9 -2 2 7 10 8 14 18
11 23 -4 5 -1 3 6 -3 12 -10 12 -18 3 -38 -15 -34 -16 -32 11 -45 19 -10 20
-9 6 2 -15 12 -15 18 -5 43 7 17 11 39 9 50 -3 11 -4 28 -4 37 0 10 -3 17 -7
17 -4 -1 -13 -1 -21 0 -25 2 -2 14 28 15 19 1 27 -2 21 -8 -6 -6 -10 -14 -10
-20 0 -6 5 -5 11 1 13 13 42 6 33 -8 -3 -5 -14 -9 -25 -9 -10 0 -19 -5 -19
-11 0 -6 8 -8 19 -4 11 3 23 0 27 -6 5 -8 3 -9 -6 -4 -9 5 -11 4 -6 -3 4 -7
14 -12 22 -12 8 0 14 -4 14 -9 0 -5 -11 -8 -25 -8 -16 0 -25 5 -25 16 0 14 -2
14 -9 1 -13 -19 -3 -33 19 -27 9 2 24 1 31 -4 11 -6 15 -1 17 18 2 29 10 43
22 43 4 0 6 -10 3 -21 -4 -16 -2 -20 8 -17 13 4 20 48 11 75 -2 6 -15 19 -29
28 -23 16 -24 16 -14 -3 6 -11 8 -22 5 -25 -3 -3 -1 -8 5 -12 6 -3 11 -1 11 6
0 7 3 9 7 6 3 -4 -6 -18 -20 -31 l-27 -25 0 22 c0 13 5 28 12 35 9 9 9 12 0
12 -7 0 -12 7 -12 15 0 8 -5 15 -11 15 -5 0 -8 4 -4 9 3 5 1 12 -5 16 -5 3
-10 -1 -10 -10 0 -8 -12 -20 -26 -25 -33 -13 -37 -13 -28 3 5 8 2 7 -10 -2
-15 -13 -18 -12 -23 8 -3 12 -12 20 -21 19 -8 -2 -17 3 -19 10 -3 6 0 12 7 12
6 0 8 -6 4 -12 -4 -8 -3 -10 2 -5 5 5 9 14 9 20 0 7 9 13 20 15 16 3 17 1 8
-8 -15 -16 -6 -40 16 -40 14 1 13 3 -3 15 -11 8 -16 15 -10 16 5 0 17 2 27 4
12 2 17 -3 17 -18 0 -11 3 -17 7 -13 13 12 11 35 -3 47 -8 6 -14 15 -14 20 0
18 16 7 36 -24z m34 -2 c0 -9 -6 -12 -15 -9 -8 4 -15 10 -15 15 0 5 7 9 15 9
8 0 15 -7 15 -15z m-186 -24 c3 -5 -3 -11 -15 -14 -16 -4 -18 -3 -8 9 13 16
16 17 23 5z m46 -36 c20 -10 27 -20 23 -31 -3 -8 -12 -13 -19 -10 -19 7 -18
-1 6 -34 22 -31 20 -34 -22 -44 -26 -6 -40 -36 -17 -36 5 0 8 -4 4 -9 -3 -5
-1 -12 5 -16 5 -3 10 -1 10 4 0 6 4 11 8 11 4 0 8 -9 8 -19 0 -15 -4 -17 -17
-10 -23 12 -39 11 -39 -2 0 -5 5 -7 10 -4 6 3 10 -4 10 -17 0 -22 -1 -22 -25
7 -13 17 -24 35 -24 40 -1 6 3 4 8 -3 6 -10 10 -10 21 3 9 11 9 15 1 15 -7 0
-9 5 -6 10 3 6 1 10 -5 10 -7 0 -9 -7 -6 -16 3 -9 2 -12 -5 -9 -6 4 -13 -2
-16 -14 -5 -18 -7 -19 -20 -5 -12 11 -18 12 -29 3 -8 -6 -14 -16 -14 -22 0 -7
4 -7 12 1 17 17 23 15 25 -5 3 -44 8 -61 15 -57 4 3 8 1 8 -3 0 -13 39 -13 46
-1 4 6 1 9 -7 6 -21 -8 -49 10 -43 27 4 8 1 15 -5 15 -6 0 -11 4 -11 9 0 16
32 5 42 -14 8 -13 7 -16 -1 -11 -6 4 -11 2 -11 -4 0 -7 12 -9 32 -6 25 4 39
-1 65 -24 28 -25 37 -28 58 -20 22 8 26 6 31 -15 3 -14 10 -25 16 -25 5 0 7 4
4 9 -3 4 8 8 24 7 19 -1 28 -5 26 -13 -3 -7 -1 -15 3 -18 5 -2 11 4 14 15 7
26 23 26 30 0 3 -11 1 -20 -4 -20 -5 0 -9 8 -10 18 0 13 -3 11 -10 -6 -5 -14
-14 -20 -20 -16 -7 4 -10 1 -7 -7 3 -8 15 -19 29 -26 19 -10 28 -9 46 3 14 8
23 10 23 4 0 -6 -7 -13 -15 -16 -8 -4 -15 -13 -15 -21 0 -12 3 -13 14 -4 10 9
15 8 19 -3 4 -10 1 -13 -9 -9 -10 4 -12 0 -7 -13 6 -18 6 -18 -10 -2 -9 9 -17
21 -17 26 0 13 -21 21 -37 14 -7 -2 -13 -9 -13 -16 0 -12 -55 -40 -77 -39 -9
1 -11 -7 -7 -23 3 -13 2 -24 -3 -24 -4 0 -14 -9 -20 -20 -10 -15 -10 -18 0
-14 8 3 18 -6 24 -19 9 -19 8 -25 -7 -35 -25 -16 -39 4 -34 48 3 33 2 34 -11
16 -8 -11 -17 -17 -20 -14 -3 3 1 11 10 18 16 13 21 35 6 26 -5 -4 -7 4 -4 16
4 19 3 20 -6 8 -9 -13 -11 -13 -11 2 0 9 5 18 12 20 7 3 5 7 -6 11 -10 4 -15
3 -11 -3 3 -6 1 -10 -4 -10 -6 0 -11 7 -11 16 0 12 7 15 25 12 13 -3 22 -1 19
4 -3 5 0 16 8 25 8 10 8 14 1 10 -14 -9 -27 9 -17 24 4 8 9 7 15 -2 6 -11 9
-10 15 4 3 9 11 14 18 10 6 -4 18 -8 26 -8 8 0 15 -7 15 -15 0 -8 5 -18 10
-22 6 -5 5 -8 -3 -8 -10 0 -10 -3 0 -14 11 -11 16 -10 30 6 19 22 13 52 -9 44
-8 -3 -12 -2 -8 3 3 5 2 11 -2 14 -5 2 -2 2 5 0 8 -1 10 2 6 9 -5 7 -3 8 6 3
9 -5 11 -4 6 4 -4 6 -12 8 -18 5 -6 -4 -21 -8 -34 -10 -19 -2 -22 2 -18 22 5
28 -11 31 -38 7 -18 -16 -18 -16 -12 3 7 17 6 18 -10 5 -17 -14 -17 -15 0 -28
16 -12 16 -13 1 -13 -9 0 -17 -8 -18 -17 0 -13 -3 -12 -10 6 -6 15 -14 21 -25
17 -11 -4 -14 -1 -12 12 2 10 12 17 26 16 20 -1 23 2 22 24 -1 4 -13 6 -28 5
-22 -2 -23 -1 -8 5 15 7 16 11 7 16 -16 10 -51 -21 -36 -32 6 -4 11 -26 11
-49 2 -42 -3 -48 -35 -44 -7 2 -11 -1 -8 -6 7 -11 -21 -48 -29 -40 -4 4 -1 14
6 23 12 13 11 17 -1 24 -12 8 -12 11 0 22 10 10 12 10 7 1 -4 -8 -1 -13 9 -13
12 0 14 4 7 17 -16 28 -39 24 -38 -6 1 -14 -3 -32 -7 -38 -5 -7 -7 -19 -4 -26
11 -29 -21 -12 -38 20 -12 21 -24 32 -32 29 -8 -3 -11 -1 -8 4 4 6 14 9 23 8
9 -2 16 3 15 10 -2 6 2 12 7 12 6 0 10 -6 11 -12 0 -7 5 -2 11 12 10 23 12 30
16 54 1 5 9 3 17 -4 9 -7 18 -10 22 -6 4 3 -2 13 -13 20 -16 13 -21 12 -36 -1
-17 -15 -43 -9 -33 8 4 5 3 15 -2 22 -4 6 -9 21 -10 32 -2 18 -1 18 10 -3 7
-12 16 -19 20 -16 11 11 8 26 -3 19 -5 -3 -10 0 -10 8 0 18 -27 30 -34 16 -2
-5 -3 -4 -1 3 1 7 8 12 14 11 6 -2 11 2 11 8 0 5 5 7 10 4 6 -3 10 -2 10 3 0
6 -7 13 -16 16 -8 3 -12 2 -9 -4 3 -6 -3 -10 -13 -10 -14 0 -21 -8 -24 -29 -3
-21 -1 -28 9 -24 7 3 13 0 13 -6 0 -6 -6 -11 -12 -12 -7 0 -3 -4 10 -9 28 -12
30 -34 2 -25 -11 3 -20 4 -20 1 0 -13 13 -36 22 -36 5 0 7 4 4 9 -4 5 5 4 18
-2 13 -6 21 -17 19 -24 -4 -10 -8 -10 -18 3 -9 13 -14 14 -20 4 -6 -10 -9 -9
-17 1 -8 11 -9 11 -5 -1 2 -8 11 -14 20 -14 8 1 13 -4 11 -10 -8 -20 -49 -13
-50 9 0 11 -4 29 -9 40 l-8 20 16 -20 c21 -25 22 -6 2 21 -14 19 -15 19 -21
-3 -7 -26 -19 -30 -28 -8 -3 8 0 15 6 15 6 0 8 3 5 6 -4 4 -13 1 -22 -6 -12
-10 -15 -9 -15 5 0 17 -1 17 -20 0 -11 -10 -22 -16 -25 -13 -9 9 7 38 21 38 8
0 13 4 12 9 -2 5 2 9 7 10 6 1 10 -4 10 -11 0 -6 7 -13 15 -15 9 -3 11 -1 5 4
-19 16 -11 67 12 79 13 6 20 13 17 16 -2 3 7 9 21 12 18 5 25 12 21 21 -3 8 6
23 20 34 25 20 25 20 61 0 31 -18 38 -18 50 -6 13 12 12 15 -2 21 -13 4 -16 2
-11 -9 3 -8 1 -15 -4 -15 -14 0 -21 18 -10 25 5 3 10 11 10 17 0 6 -9 3 -20
-7 -18 -16 -20 -16 -20 -2 0 10 5 17 10 17 6 0 10 8 11 18 0 10 3 12 6 5 3
-10 8 -9 20 3 9 8 22 13 29 10 8 -3 14 -1 14 4 0 13 6 13 40 -5z m295 -5 c3
-5 -1 -10 -10 -10 -9 0 -13 5 -10 10 3 6 8 10 10 10 2 0 7 -4 10 -10z m-167
-12 c16 -16 15 -29 -2 -22 -16 6 -30 34 -18 34 5 0 13 -5 20 -12z m180 -15
c-10 -2 -18 -11 -18 -20 0 -12 3 -13 14 -3 13 10 15 7 13 -17 -3 -30 -31 -43
-51 -23 -8 9 -4 10 19 4 l30 -7 -22 22 c-26 25 -20 52 11 50 16 -1 17 -2 4 -6z
m-264 -24 c-3 -6 0 -15 7 -20 10 -6 7 -8 -9 -6 -12 0 -22 2 -22 3 0 12 14 34
22 34 5 0 6 -5 2 -11z m256 -89 c0 -5 -2 -10 -4 -10 -3 0 -8 5 -11 10 -3 6 -1
10 4 10 6 0 11 -4 11 -10z m-5 -140 c3 -6 -1 -7 -9 -4 -18 7 -21 14 -7 14 6 0
13 -4 16 -10z m-1 -28 c2 -4 -4 -14 -16 -21 -14 -9 -18 -9 -13 -1 5 9 1 10
-12 6 -14 -5 -20 -2 -20 11 0 10 5 21 10 25 11 7 42 -5 51 -20z m-210 -7 c-4
-8 -8 -15 -10 -15 -2 0 -4 7 -4 15 0 8 4 15 10 15 5 0 7 -7 4 -15z m-90 -46
c-3 -5 -10 -7 -15 -3 -5 3 -7 10 -3 15 3 5 10 7 15 3 5 -3 7 -10 3 -15z m239
13 c2 7 8 10 12 6 13 -12 -14 -36 -35 -31 -20 5 -25 15 -13 26 3 4 12 2 19 -4
8 -7 13 -6 17 3z m-203 -44 c0 -4 -3 -7 -7 -6 -5 2 -19 -5 -31 -14 l-24 -16
22 -22 c21 -21 21 -22 3 -35 -22 -16 -30 -11 -14 9 7 9 8 17 2 20 -5 3 -11 2
-13 -3 -2 -5 -13 -5 -25 0 -26 9 -31 44 -9 52 10 4 13 1 10 -7 -3 -7 1 -18 9
-24 12 -10 14 -7 11 15 -1 15 -1 30 1 33 6 10 65 8 65 -2z m140 8 c0 -3 -4 -8
-10 -11 -5 -3 -10 -1 -10 4 0 6 5 11 10 11 6 0 10 -2 10 -4z m50 -30 c0 -2 -7
-7 -16 -10 -8 -3 -12 -2 -9 4 6 10 25 14 25 6z m-420 -36 c-9 -6 -9 -9 -1 -13
7 -3 7 -5 -1 -3 -7 1 -14 10 -16 19 -3 12 1 15 13 11 12 -5 13 -9 5 -14z m430
-6 c0 -10 5 -12 13 -8 9 6 9 5 0 -8 -7 -8 -10 -18 -6 -21 3 -4 1 -7 -5 -7 -11
0 -16 13 -13 33 2 14 -18 7 -28 -10 -9 -16 -10 -16 -11 -2 0 27 -34 17 -52
-16 -11 -22 -13 -35 -6 -48 14 -27 6 -29 -13 -4 -15 21 -15 24 7 59 20 31 28
36 54 33 18 -2 28 0 25 5 -4 6 1 7 11 3 13 -5 15 -3 9 7 -5 9 -4 11 3 6 7 -4
12 -14 12 -22z m-465 -4 c-3 -4 2 -13 11 -20 8 -7 13 -19 10 -27 -3 -7 -2 -13
3 -13 5 0 11 -13 14 -30 5 -24 11 -29 33 -27 34 3 41 -15 12 -28 -13 -6 -22
-17 -20 -25 1 -10 -3 -8 -13 5 -9 11 -13 25 -11 31 3 7 -2 15 -10 18 -8 3 -14
0 -14 -6 0 -13 -14 -1 -16 13 -3 22 -5 23 -13 11 -7 -11 -9 -11 -14 2 -7 18
18 23 28 6 4 -6 11 -7 17 -4 6 4 6 10 -1 17 -17 17 -51 18 -57 2 -8 -21 -20
-19 -20 4 0 10 5 17 12 14 7 -2 14 12 18 36 5 30 10 39 21 35 8 -4 13 -10 10
-14z m389 -35 c-18 -14 -17 -15 11 -10 l30 5 -34 -15 c-18 -9 -35 -14 -37 -12
-6 6 27 47 38 47 7 0 3 -7 -8 -15z m-259 -25 c3 -6 -1 -7 -9 -4 -18 7 -21 14
-7 14 6 0 13 -4 16 -10z m315 -89 c13 -25 13 -31 -1 -31 -5 0 -7 5 -4 10 3 6
2 10 -3 10 -6 0 -12 7 -16 15 -8 22 12 18 24 -4z m-70 -157 c0 -8 -5 -12 -10
-9 -6 4 -8 11 -5 16 9 14 15 11 15 -7z m-73 -21 c-4 -3 4 -14 17 -22 23 -16
24 -17 6 -38 -15 -19 -20 -20 -30 -8 -6 8 -8 20 -4 26 5 9 9 7 14 -6 4 -12 9
-15 13 -8 9 14 -21 46 -34 38 -5 -4 -10 -16 -10 -28 -1 -18 -2 -19 -6 -4 -4
16 21 57 35 57 3 0 2 -3 -1 -7z m53 -13 c0 -5 -5 -10 -11 -10 -5 0 -7 5 -4 10
3 6 8 10 11 10 2 0 4 -4 4 -10z m-63 -77 c2 -6 -4 -10 -14 -8 -10 2 -21 4 -25
4 -5 1 -8 5 -8 9 0 13 43 7 47 -5z m-55 -75 c-7 -7 -12 -8 -12 -2 0 14 12 26
19 19 2 -3 -1 -11 -7 -17z m-22 -8 c0 -5 -2 -10 -4 -10 -3 0 -8 5 -11 10 -3 6
-1 10 4 10 6 0 11 -4 11 -10z m-120 -97 c0 -32 -5 -28 -14 10 -4 19 -3 26 4
22 5 -3 10 -18 10 -32z m-40 -39 c0 -8 -5 -12 -10 -9 -6 4 -8 11 -5 16 9 14
15 11 15 -7z m-40 -14 c0 -5 -5 -10 -11 -10 -5 0 -7 5 -4 10 3 6 8 10 11 10 2
0 4 -4 4 -10z m-204 -9 c-3 -4 2 -17 10 -27 14 -17 15 -17 10 -1 -4 13 0 17
22 16 18 -1 21 -3 9 -6 -20 -5 -19 -37 1 -39 6 -1 17 -2 22 -3 14 -1 13 -28
-2 -37 -6 -4 -8 -3 -5 2 3 6 2 16 -4 24 -7 13 -9 12 -9 -2 0 -20 -27 -24 -50
-7 -13 9 -12 10 3 5 11 -3 17 0 17 9 0 8 -4 15 -8 15 -5 0 -14 11 -20 25 -15
32 -15 35 -1 35 5 0 8 -4 5 -9z m183 -22 c-14 -8 -29 -3 -29 11 0 4 9 6 21 3
15 -4 17 -8 8 -14z m-79 -14 c0 -2 -7 -5 -15 -9 -9 -3 -15 0 -15 9 0 9 6 12
15 9 8 -4 15 -7 15 -9z m-172 -34 c-2 -23 4 -41 12 -36 23 14 54 13 74 -1 l21
-16 -22 7 c-18 5 -23 2 -23 -12 -1 -17 -1 -17 -11 0 -10 18 -11 18 -26 0 -14
-17 -14 -17 -9 0 3 10 2 16 -3 13 -5 -3 -16 5 -25 19 -20 30 -20 32 -2 32 8 0
15 -3 14 -6z m-225 -55 c4 -10 1 -13 -8 -9 -8 3 -12 9 -9 14 7 12 11 11 17 -5z
m227 -27 c0 -18 -1 -18 -18 -1 -11 10 -14 20 -8 24 15 10 26 0 26 -23z m-20
-13 c0 -3 -4 -8 -10 -11 -5 -3 -10 -1 -10 4 0 6 5 11 10 11 6 0 10 -2 10 -4z
m-193 -33 c-18 -18 -57 -25 -57 -11 0 10 63 39 69 32 3 -2 -3 -12 -12 -21z m9
-51 c-22 -5 -30 3 -21 18 5 8 11 7 22 -2 15 -12 14 -13 -1 -16z m49 18 c-3 -5
-12 -10 -18 -10 -7 0 -6 4 3 10 19 12 23 12 15 0z"/>
<path d="M5860 7410 c-12 -17 -19 -38 -17 -48 4 -13 5 -12 6 5 0 12 7 26 14
30 13 8 31 43 22 43 -2 0 -13 -14 -25 -30z"/>
<path d="M5954 7259 c-3 -6 1 -18 10 -27 15 -15 16 -14 16 11 0 27 -13 36 -26
16z"/>
<path d="M5860 6859 c0 -5 5 -7 10 -4 6 4 17 1 25 -5 9 -7 15 -8 15 -2 0 10
-23 22 -41 22 -5 0 -9 -5 -9 -11z"/>
<path d="M5652 6984 c-11 -12 -7 -14 25 -14 27 0 34 3 23 9 -8 6 -17 8 -21 5
-4 -2 -9 0 -11 5 -1 5 -9 3 -16 -5z"/>
<path d="M5610 6950 c0 -4 11 -7 25 -5 14 1 26 -2 26 -6 1 -5 3 -13 4 -19 1
-5 3 -14 4 -18 0 -5 8 -9 16 -9 11 0 12 4 4 14 -6 7 -8 13 -5 13 4 0 0 8 -9
17 -18 18 -65 27 -65 13z"/>
<path d="M5524 6915 c-4 -8 -10 -12 -15 -9 -5 3 -9 -3 -9 -14 0 -17 -44 -58
-80 -74 -12 -5 -12 -7 3 -7 20 -1 23 -27 5 -34 -8 -3 -6 -6 5 -6 9 -1 17 -6
17 -12 0 -5 -6 -7 -12 -3 -8 4 -10 3 -5 -2 5 -5 12 -9 15 -9 4 0 12 -4 19 -8
9 -5 8 3 -3 28 -13 31 -13 39 0 63 8 15 16 26 18 24 8 -8 36 11 32 22 -4 9 4
13 25 12 17 0 30 4 28 9 -1 6 -10 9 -19 8 -12 -2 -15 2 -12 12 4 8 3 15 0 15
-4 0 -9 -7 -12 -15z"/>
<path d="M5638 6912 c-4 -12 -18 -23 -37 -27 -17 -4 -29 -11 -25 -16 3 -5 13
-5 25 1 11 6 23 9 27 6 12 -7 31 29 22 43 -5 9 -9 7 -12 -7z"/>
<path d="M5533 6864 c0 -20 23 -24 24 -5 1 10 -4 18 -11 18 -7 0 -13 -6 -13
-13z"/>
<path d="M5570 6840 c0 -5 5 -10 11 -10 5 0 7 5 4 10 -3 6 -8 10 -11 10 -2 0
-4 -4 -4 -10z"/>
<path d="M5550 6735 c-7 -9 -11 -18 -8 -20 3 -3 11 1 18 10 7 9 11 18 8 20 -3
3 -11 -1 -18 -10z"/>
<path d="M5615 6707 c8 -20 -12 -32 -30 -17 -12 10 -15 10 -15 0 0 -6 8 -14
19 -17 10 -2 25 -19 34 -36 l16 -32 0 46 c1 30 -4 51 -14 59 -13 11 -14 10
-10 -3z m12 -49 c-3 -8 -6 -5 -6 6 -1 11 2 17 5 13 3 -3 4 -12 1 -19z"/>
<path d="M5686 6666 c10 -8 21 -12 24 -10 5 6 -21 24 -34 24 -6 0 -1 -6 10
-14z"/>
<path d="M5760 6617 c0 -7 -3 -23 -7 -36 -5 -21 -4 -22 15 -12 16 8 21 7 26
-5 3 -9 2 -12 -4 -9 -6 4 -19 4 -29 0 -14 -4 -19 -13 -17 -33 2 -15 4 -31 5
-37 0 -5 9 -1 19 8 14 15 15 19 3 26 -17 11 -5 32 17 29 12 -2 17 5 18 25 1
26 -12 35 -32 20 -5 -5 -2 -1 8 8 17 16 16 17 -2 22 -11 3 -20 0 -20 -6z"/>
<path d="M5532 6597 c8 -16 12 -17 19 -6 13 21 11 28 -10 26 -16 -1 -18 -5 -9
-20z"/>
<path d="M5756 6431 c-4 -6 -2 -11 4 -11 6 0 8 -6 4 -12 -6 -10 -4 -10 7 0 9
9 10 15 2 23 -8 8 -13 8 -17 0z"/>
<path d="M5936 6691 c-3 -5 3 -11 15 -14 16 -4 18 -3 8 9 -13 16 -16 17 -23 5z"/>
<path d="M5430 6495 c0 -8 8 -11 20 -8 11 3 20 7 20 8 0 1 -9 5 -20 8 -12 3
-20 0 -20 -8z"/>
<path d="M5563 7635 c0 -24 1 -25 17 -10 17 16 55 11 44 -6 -3 -5 -9 -7 -13
-5 -4 3 -13 1 -20 -3 -9 -6 -10 -11 -2 -15 6 -4 11 -3 11 3 0 6 7 8 15 5 8 -4
13 -10 10 -14 -3 -5 -1 -11 5 -15 5 -3 10 -14 10 -23 0 -14 -2 -14 -9 -3 -11
17 -34 4 -27 -15 3 -8 1 -14 -4 -14 -15 0 -12 -17 4 -23 11 -4 13 -1 10 11 -5
14 -3 13 10 -2 9 -11 16 -23 16 -27 0 -4 7 -9 15 -13 13 -5 13 -2 -1 22 -15
26 -15 26 1 5 10 -13 21 -23 26 -23 17 0 9 25 -11 38 -12 7 -19 16 -16 21 3 4
-1 19 -9 34 -12 24 -12 27 3 27 12 0 13 3 4 12 -7 7 -12 19 -12 28 0 12 -8 16
-30 15 -16 -1 -30 2 -30 7 0 4 -4 8 -9 8 -5 0 -8 -11 -8 -25z m81 -100 c3 3 2
0 -3 -6 -10 -12 -31 -4 -31 13 0 7 4 7 13 -1 8 -6 17 -9 21 -6z"/>
<path d="M5400 7594 c-47 -30 -85 -60 -85 -67 -1 -7 5 -22 13 -34 13 -20 12
-23 -2 -23 -10 0 -15 4 -11 9 3 5 0 13 -6 17 -8 5 -9 3 -4 -6 6 -10 3 -12 -13
-8 -12 4 -25 2 -28 -3 -7 -12 -24 -12 -24 1 0 5 11 12 24 16 14 3 27 12 30 19
5 14 -81 -32 -237 -128 -67 -40 -95 -63 -88 -70 7 -7 4 -18 -10 -35 -14 -18
-16 -28 -8 -32 8 -6 8 -10 -1 -15 -8 -5 -18 -1 -27 10 -17 25 -17 39 3 31 8
-3 13 -2 9 3 -3 5 0 11 6 13 7 2 10 10 8 17 -3 8 -13 5 -32 -13 -15 -14 -27
-23 -27 -20 0 8 -52 -30 -157 -113 -92 -72 -105 -95 -70 -115 14 -7 14 -12 5
-28 -7 -10 -16 -16 -20 -14 -4 3 -8 1 -8 -4 0 -6 7 -12 15 -16 8 -3 15 -1 15
4 0 6 4 10 9 10 5 0 7 -9 4 -21 -4 -13 -9 -17 -16 -10 -5 5 -16 7 -25 4 -10
-4 -13 -2 -8 5 4 7 2 12 -3 12 -6 0 -11 -7 -11 -16 0 -9 -5 -12 -12 -8 -8 5
-7 0 2 -11 14 -17 13 -18 -4 -12 -14 5 -17 3 -13 -8 9 -22 -7 -26 -32 -9 -17
13 -20 19 -10 30 7 9 8 14 1 14 -6 0 -14 -9 -17 -20 -4 -11 -11 -18 -16 -15
-5 4 0 16 11 27 11 12 20 25 20 30 0 4 4 8 10 8 5 0 8 -14 6 -30 -2 -17 0 -33
5 -36 8 -5 13 10 10 29 -1 4 6 10 14 13 8 4 15 16 15 28 0 15 3 17 9 7 6 -9
11 -10 15 -2 4 6 4 11 0 11 -3 0 -1 6 5 14 8 10 9 16 1 21 -5 3 -13 -1 -16 -9
-3 -9 -11 -16 -17 -16 -6 0 0 11 13 25 13 14 19 25 14 25 -12 0 -162 -153
-196 -200 -14 -19 -23 -41 -21 -48 3 -7 0 -11 -7 -10 -6 2 -23 -17 -38 -41
-21 -36 -23 -43 -9 -38 9 3 17 2 17 -3 0 -6 -9 -10 -19 -10 -24 0 -52 -68 -76
-186 -19 -89 -30 -264 -17 -264 5 0 7 -13 4 -30 -6 -43 14 -151 49 -260 32
-100 97 -242 114 -247 6 -2 20 25 31 59 12 35 25 72 30 83 7 17 6 18 -8 8 -8
-7 -17 -10 -20 -7 -3 2 -8 -3 -12 -12 -5 -12 -2 -15 10 -10 14 6 15 4 4 -9
-12 -15 -14 -15 -23 0 -5 9 -6 23 -3 31 3 9 2 12 -5 9 -5 -4 -15 -2 -22 4 -8
6 -18 6 -27 1 -23 -15 -29 -12 -25 10 2 11 0 18 -6 15 -5 -4 -9 -1 -9 4 0 6
10 11 21 11 19 0 20 2 8 16 -8 10 -15 12 -17 5 -2 -6 -8 -11 -13 -11 -5 0 -4
9 3 19 7 11 16 17 22 14 5 -3 6 -1 2 6 -4 6 -2 18 4 26 7 8 8 15 3 15 -5 0 -9
8 -8 18 1 18 24 63 25 48 0 -5 6 -3 14 3 10 8 16 9 21 1 3 -6 11 -8 16 -5 5 4
9 2 9 -2 0 -5 -10 -14 -21 -22 -20 -12 -21 -11 -15 6 6 15 4 15 -15 -4 -19
-19 -21 -26 -11 -47 6 -15 7 -28 2 -31 -14 -9 -7 -45 10 -46 9 0 6 -4 -7 -9
-30 -12 -29 -24 1 -18 15 3 23 1 20 -6 -2 -6 8 -11 26 -11 16 0 30 5 30 10 -1
6 -11 9 -23 8 -16 -1 -17 0 -4 3 12 4 16 12 12 24 -3 10 0 22 6 26 7 4 9 3 5
-4 -3 -6 -2 -13 4 -17 6 -4 8 -9 6 -13 -2 -4 2 -12 9 -19 10 -9 16 -2 30 35
30 79 134 282 193 377 107 172 225 321 397 504 33 35 59 67 57 73 -1 5 1 7 6
4 5 -3 84 66 175 154 158 152 168 160 206 160 28 0 48 -8 69 -25 31 -26 52
-32 52 -15 0 15 29 12 46 -5 9 -8 19 -15 24 -15 5 0 7 7 4 15 -8 21 20 19 37
-2 12 -15 12 -16 -5 -10 -16 7 -17 5 -5 -9 7 -9 15 -12 17 -6 2 6 17 7 40 1
20 -4 39 -8 42 -8 3 0 7 -8 9 -17 2 -12 -2 -15 -14 -10 -13 4 -16 2 -11 -9 3
-8 1 -15 -4 -15 -6 0 -10 -7 -10 -15 0 -8 5 -15 11 -15 5 0 8 -4 4 -9 -3 -5
-1 -12 4 -16 6 -3 8 5 5 20 -6 34 4 49 22 34 10 -8 14 -8 14 0 0 6 -5 11 -11
11 -7 0 -4 11 6 26 9 15 12 24 7 20 -6 -4 -19 3 -30 14 -20 21 -62 35 -62 20
0 -4 6 -11 13 -14 6 -3 3 -4 -8 -3 -14 2 -19 9 -18 25 2 12 -2 22 -7 22 -6 0
-10 7 -10 16 0 8 -3 13 -8 10 -10 -6 -38 16 -37 32 0 7 7 17 15 22 8 5 12 12
8 15 -10 10 -48 -27 -41 -39 4 -6 -2 -4 -12 4 -10 8 -16 10 -12 3 4 -7 -4 -15
-20 -21 -16 -6 -22 -11 -15 -11 7 -1 10 -5 7 -11 -4 -6 -11 -5 -19 3 -17 15
-11 27 15 27 23 0 24 8 3 39 -16 22 -16 23 5 16 25 -8 27 2 5 26 -10 11 -12
19 -5 24 6 3 11 -1 11 -11 0 -10 3 -14 7 -11 10 10 -18 57 -34 57 -8 0 -11 5
-8 10 4 6 11 7 17 4 6 -4 9 -1 6 7 -3 8 -13 15 -24 17 -15 3 -16 1 -4 -7 12
-8 9 -12 -14 -21 -31 -12 -49 -5 -26 10 10 7 11 10 3 10 -20 0 -15 30 5 31 14
0 14 2 -3 8 -15 6 -22 3 -28 -12 -4 -12 -3 -23 2 -26 6 -4 6 -12 2 -20 -5 -7
-13 -11 -19 -7 -6 4 -8 -2 -5 -15 4 -12 14 -24 25 -26 10 -3 18 -10 18 -15 0
-5 -4 -6 -10 -3 -5 3 -15 3 -21 -1 -8 -4 -7 -9 2 -15 15 -9 39 7 39 26 0 7
-10 16 -22 20 -15 4 -18 8 -10 12 22 9 44 -18 37 -46 -5 -24 -4 -24 8 -8 16
19 37 23 37 6 0 -5 -4 -8 -9 -5 -4 3 -16 -3 -26 -14 -14 -15 -15 -20 -4 -20
12 0 12 -2 0 -9 -8 -5 -9 -11 -3 -15 6 -4 15 1 20 9 8 15 10 15 22 0 11 -13
10 -15 -3 -10 -8 4 -18 1 -22 -4 -3 -6 -11 -9 -16 -6 -13 9 -11 -8 4 -28 17
-24 65 -32 63 -11 0 10 8 18 23 20 17 3 22 0 17 -11 -3 -8 -1 -15 4 -15 6 0
10 4 10 10 0 5 9 2 20 -7 26 -23 26 -37 -1 -22 -16 8 -24 8 -33 -2 -8 -9 -8
-10 3 -4 10 5 12 4 7 -4 -10 -15 -26 -4 -26 17 0 13 -2 14 -9 4 -9 -15 -84
-13 -79 1 4 13 -27 27 -49 23 -11 -3 -20 1 -20 8 0 8 9 11 24 8 13 -2 23 0 23
6 0 11 -39 21 -58 14 -7 -2 -10 -8 -7 -13 4 -5 -1 -6 -9 -3 -19 7 -22 -12 -3
-19 6 -3 -3 -3 -20 0 -20 3 -33 1 -33 -5 0 -5 10 -8 23 -6 l22 5 -22 -12 c-12
-7 -30 -8 -40 -4 -10 5 -22 7 -27 6 -4 -1 -14 4 -22 10 -12 9 -13 9 -9 -4 7
-16 40 -30 64 -27 13 1 13 -1 1 -15 -13 -15 -15 -15 -26 -1 -6 9 -18 16 -27
16 -8 0 -18 6 -20 13 -4 9 -6 9 -6 -1 -1 -10 -6 -10 -21 -2 -11 6 -25 8 -30 5
-5 -3 -11 -1 -15 5 -6 9 7 14 28 11 4 0 7 3 7 9 0 6 -6 10 -13 10 -7 0 -19 9
-27 20 -20 28 -30 25 -24 -7 4 -23 3 -25 -10 -14 -10 9 -13 19 -7 30 5 9 7 24
6 34 -2 9 1 15 6 11 5 -3 9 0 9 5 0 6 5 11 12 11 6 0 4 -7 -5 -18 -16 -17 -16
-19 0 -17 10 1 28 7 41 13 15 9 28 10 41 3 14 -8 22 -7 31 4 9 11 16 12 31 2
20 -12 26 -47 8 -47 -5 0 -7 5 -3 12 4 7 3 8 -4 4 -8 -5 -9 -13 -2 -25 5 -10
6 -21 3 -25 -3 -3 -1 -6 6 -6 8 0 11 7 7 15 -7 18 5 20 22 3 9 -9 16 -9 28 4
14 14 14 16 -1 22 -13 4 -16 2 -11 -9 3 -8 1 -15 -3 -15 -13 0 -21 28 -9 32 6
2 12 20 14 41 3 28 1 35 -9 31 -8 -3 -14 2 -14 11 0 8 3 15 6 16 3 0 14 2 24
4 12 2 17 -1 13 -10 -3 -8 3 -17 15 -20 10 -4 19 -11 19 -16 0 -13 -14 -11
-28 3 -9 9 -12 8 -12 -6 0 -9 5 -14 10 -11 6 3 10 -1 10 -10 0 -24 23 -13 27
13 2 13 -3 25 -12 28 -8 4 -15 10 -15 16 0 5 6 6 13 3 6 -4 4 0 -6 8 -21 18
-12 51 12 43 11 -4 10 -1 -4 10 -19 14 -20 14 -23 -6 -2 -11 -8 -18 -13 -15
-5 4 -5 14 2 27 13 23 -3 40 -29 30 -12 -4 -12 -7 4 -19 15 -11 16 -13 1 -13
-9 0 -23 10 -31 22 -13 19 -18 20 -28 9 -10 -11 -10 -12 0 -7 6 4 12 2 12 -3
0 -6 -8 -11 -17 -11 -15 0 -16 -2 -3 -10 20 -13 33 -13 25 0 -3 6 -1 10 5 10
7 0 9 -8 5 -20 -4 -12 -2 -20 5 -20 6 0 8 5 5 10 -3 6 0 10 8 10 8 0 17 -7 21
-15 5 -14 -5 -19 -31 -16 -7 1 -13 -3 -13 -9 0 -6 -11 -5 -30 5 -33 17 -52 20
-30 4 12 -9 11 -10 -7 -6 -26 6 -46 -14 -37 -36 3 -9 -3 -26 -16 -39 -20 -21
-21 -22 -18 -3 1 11 9 22 16 25 11 5 10 9 -4 20 -10 8 -15 10 -12 5 8 -14 -21
-33 -45 -29 -15 2 -17 -3 -12 -34 5 -30 4 -34 -5 -19 -20 31 -20 56 -1 67 10
5 22 6 26 2 5 -4 5 -1 1 6 -4 7 -1 12 8 12 22 0 20 12 -4 38 -25 26 -28 27
-50 7 -16 -14 -17 -13 -18 17 0 18 2 27 6 22 8 -13 64 -25 56 -13 -3 5 1 9 9
9 11 0 13 -7 9 -22 l-5 -21 21 21 c28 28 56 29 49 2 -3 -12 -1 -18 5 -14 5 3
7 16 4 29 -7 26 27 65 39 45 5 -7 12 -2 21 15 19 37 17 44 -5 18 -16 -19 -20
-20 -25 -7 -9 23 -8 24 13 24 10 0 24 7 31 15 7 8 18 15 24 15 6 0 2 -7 -8
-15 -11 -8 -14 -15 -7 -15 7 0 9 -6 6 -12 -4 -7 1 -4 9 6 21 26 20 32 -6 50
-12 9 -17 16 -10 16 6 0 21 -9 32 -20 11 -11 25 -20 31 -20 5 0 7 -5 4 -10 -4
-6 -10 -8 -15 -5 -5 3 -11 1 -15 -5 -9 -14 18 -13 33 2 6 6 15 9 19 5 9 -10
-10 -28 -33 -31 -24 -4 -29 -22 -9 -30 9 -3 13 -2 10 3 -3 5 -1 12 5 16 6 3
10 -4 11 -17 1 -19 3 -17 11 10 11 33 25 43 25 17 0 -8 -4 -15 -9 -15 -14 0
-9 -18 7 -24 12 -4 14 0 11 19 -3 15 0 25 7 25 7 0 3 8 -8 16 l-20 16 20 -2
c37 -4 40 0 11 15 -15 8 -31 13 -36 10 -4 -2 -23 4 -42 14 -31 15 -33 19 -19
29 9 6 12 11 6 11 -5 -1 -48 -25 -95 -55z m50 9 c0 -5 -16 -18 -35 -31 -19
-12 -35 -27 -35 -33 0 -5 5 -7 10 -4 20 12 9 -8 -16 -32 -15 -14 -24 -18 -21
-9 4 10 1 13 -7 10 -8 -3 -17 -1 -21 5 -3 6 -1 11 5 11 6 0 9 4 5 10 -3 5 13
19 37 31 23 12 48 28 56 35 15 16 22 18 22 7z m-240 -157 c0 -8 -4 -18 -10
-21 -5 -3 -10 -2 -10 4 0 6 -8 8 -17 4 -15 -5 -14 -3 2 10 25 20 35 21 35 3z
m-62 -34 c-10 -2 -18 -8 -18 -14 0 -6 -3 -8 -6 -5 -11 10 17 38 30 30 7 -5 5
-9 -6 -11z m140 -2 c5 -13 3 -13 -12 -1 -14 12 -16 12 -10 -3 4 -11 -1 -22
-15 -32 -12 -9 -18 -21 -15 -27 4 -7 4 -9 -1 -5 -4 4 -17 2 -29 -5 -39 -22
-53 -17 -51 17 3 46 14 65 36 63 10 -1 19 -5 19 -9 0 -4 7 -5 15 -2 8 4 15 1
15 -5 0 -6 4 -11 9 -11 5 0 7 9 4 21 -5 16 -2 20 12 18 10 -2 21 -11 23 -19z
m-161 -30 c13 0 13 -3 3 -15 -7 -8 -16 -15 -20 -15 -10 0 -19 47 -11 56 3 3 7
-1 9 -10 2 -9 10 -16 19 -16z m247 15 c-4 -10 -2 -13 7 -10 9 3 14 -3 15 -19
1 -16 -3 -23 -11 -20 -14 6 -27 43 -19 56 9 14 14 9 8 -7z m80 -10 c15 -14 31
-25 35 -25 9 0 8 -36 -1 -45 -3 -3 -8 6 -12 20 -7 27 -33 34 -54 13 -9 -9 -12
-8 -13 5 -1 9 -2 23 -3 30 -6 34 13 35 48 2z m202 15 c21 -8 25 -13 16 -22 -9
-9 -17 -7 -34 10 -25 25 -22 27 18 12z m-574 -48 c-3 -9 -1 -13 5 -9 6 4 16 0
23 -8 7 -8 9 -15 5 -15 -4 0 0 -11 9 -25 15 -23 15 -25 -9 -41 -13 -8 -29 -13
-35 -9 -5 3 -13 -1 -16 -9 -3 -9 -10 -13 -16 -10 -5 3 -12 -3 -15 -15 -3 -12
-9 -21 -14 -21 -5 0 -6 8 -3 18 5 13 4 14 -4 3 -12 -16 -4 -44 9 -35 5 3 6 -2
3 -11 -6 -14 -8 -14 -18 2 -7 10 -13 28 -13 40 -1 17 3 21 19 18 14 -3 18 0
14 11 -3 8 -1 12 4 9 5 -3 17 -2 26 3 15 8 15 10 0 15 -11 4 -15 3 -10 -4 4
-8 -1 -9 -15 -4 -11 3 -21 2 -21 -3 0 -5 -9 -12 -20 -15 -22 -6 -23 -35 -1
-61 11 -13 11 -16 0 -16 -10 -1 -8 -4 4 -11 9 -5 17 -15 17 -21 0 -9 -3 -9
-12 0 -7 7 -17 12 -22 12 -6 0 -3 -6 6 -14 11 -8 15 -20 11 -34 -6 -24 -18
-28 -29 -11 -5 8 -10 7 -16 -4 -5 -9 -15 -14 -23 -11 -8 4 -15 2 -15 -4 0 -6
-9 -8 -20 -5 -12 3 -19 7 -18 8 2 2 6 3 10 2 3 -1 18 9 32 22 25 24 25 25 7
38 -24 16 -23 51 1 59 17 5 14 34 -4 34 -5 0 -6 -5 -2 -12 4 -7 3 -8 -4 -4 -7
4 -12 1 -13 -6 0 -7 -5 -1 -10 14 -7 17 -15 25 -25 21 -8 -3 -14 0 -14 7 0 6
5 8 10 5 6 -3 10 -2 10 2 0 5 9 9 20 10 11 1 20 -4 20 -10 0 -7 8 -17 19 -24
24 -15 36 -57 14 -48 -9 3 -20 0 -25 -7 -13 -21 -9 -31 7 -18 9 7 19 10 22 6
4 -4 1 -11 -7 -16 -12 -8 -12 -10 4 -10 18 0 18 -1 2 -19 -17 -18 -16 -19 8
-17 19 1 24 5 20 16 -4 8 -7 33 -8 55 0 22 -5 43 -10 47 -6 4 -4 13 3 22 7 9
11 22 8 30 -7 18 21 30 39 15 9 -7 18 -7 33 0 22 12 38 15 28 5 -3 -4 1 -13 9
-21 11 -12 18 -12 29 -3 15 12 10 40 -7 40 -6 0 -7 -7 -4 -16 5 -14 4 -15 -9
-4 -8 7 -12 17 -9 22 4 6 -4 4 -17 -2 -13 -7 -21 -9 -17 -5 4 4 2 18 -3 32 -8
21 -5 29 13 44 23 21 41 9 30 -19z m68 -3 c0 -5 -4 -7 -10 -4 -5 3 -10 2 -10
-3 0 -14 26 -33 33 -25 4 3 7 1 7 -5 0 -6 -4 -13 -9 -16 -5 -3 -7 -15 -4 -26
3 -11 1 -20 -5 -20 -5 0 -9 12 -9 26 0 15 -5 29 -10 33 -8 5 -9 20 -5 44 3 11
22 8 22 -4z m-140 -14 c-10 -12 -10 -15 3 -15 10 0 15 -8 14 -21 -1 -19 -2
-19 -14 -3 -7 10 -13 14 -13 9 0 -5 -5 -4 -12 3 -9 9 -8 15 8 27 25 19 30 19
14 0z m214 -16 c9 8 18 -2 34 -35 22 -44 49 -56 46 -20 -2 13 1 14 12 5 10 -8
12 -15 4 -23 -18 -18 -12 -39 10 -33 25 7 42 -21 29 -46 -6 -9 -15 -17 -21
-17 -6 0 -5 7 3 18 13 15 12 16 -3 3 -16 -12 -18 -11 -18 2 0 8 6 18 13 20 7
3 5 6 -5 6 -10 1 -18 -6 -18 -14 0 -18 -16 -20 -23 -2 -3 6 -6 3 -6 -8 -1 -12
4 -26 9 -31 7 -7 6 -11 -5 -11 -14 0 -20 15 -15 47 1 11 -3 9 -13 -4 -14 -19
-14 -19 -14 6 0 21 4 25 21 22 11 -2 15 -2 9 2 -7 3 -13 10 -13 15 0 6 5 7 10
4 6 -3 10 -1 10 4 0 15 -4 14 -45 -10 -20 -12 -38 -19 -41 -16 -3 3 8 13 26
22 31 16 31 17 14 36 -15 16 -16 22 -5 28 9 6 4 9 -13 9 -24 0 -25 -2 -13 -17
25 -29 29 -41 14 -41 -8 0 -14 8 -13 17 0 10 -5 18 -11 18 -7 0 -14 4 -14 9
-3 13 25 48 29 36 3 -7 8 -8 16 -1z m-29 -76 c-2 -10 -5 -25 -7 -33 -2 -9 4
-15 14 -15 9 0 20 -4 25 -9 4 -5 4 -7 -2 -4 -13 7 -38 -19 -26 -27 5 -3 12 1
15 7 5 10 7 10 12 1 3 -7 12 -13 20 -13 9 0 13 -4 10 -9 -3 -5 8 -14 25 -20
30 -10 31 -10 27 14 -6 29 0 32 17 8 11 -15 14 -14 33 5 11 11 18 23 15 26 -7
7 32 0 50 -9 6 -4 3 1 -7 9 -11 9 -26 16 -33 16 -7 0 -13 4 -13 8 0 5 7 9 15
9 8 0 15 -4 15 -9 0 -4 6 -8 14 -8 28 0 24 -29 -9 -58 -29 -27 -35 -29 -57
-18 -23 12 -25 11 -35 -21 -7 -25 -7 -33 1 -30 6 2 11 10 11 18 0 7 8 15 19
17 18 4 18 3 0 -20 -24 -30 -124 -120 -104 -93 8 11 19 23 24 27 6 4 -2 12
-17 19 -30 13 -31 17 -17 39 8 12 10 10 10 -9 0 -18 3 -22 11 -14 6 6 8 21 4
33 -4 12 -9 19 -12 16 -3 -3 -12 2 -20 10 -21 21 -7 31 15 11 21 -19 32 -22
32 -7 0 6 -4 9 -9 8 -5 -2 -16 6 -25 17 -14 19 -16 19 -32 3 -14 -14 -15 -20
-4 -32 9 -12 9 -16 1 -16 -7 0 -9 -5 -6 -10 4 -6 11 -8 16 -5 5 4 9 2 9 -4 0
-5 -6 -11 -12 -14 -10 -3 -10 -8 2 -23 8 -10 11 -16 6 -12 -10 9 -46 -33 -39
-46 3 -4 10 -2 15 5 8 11 9 10 4 -3 -3 -10 -1 -20 5 -23 5 -4 7 -11 4 -16 -8
-12 -35 -11 -35 2 0 5 5 7 10 4 6 -3 10 -1 10 4 0 6 -4 11 -9 11 -18 0 -21 33
-4 46 12 9 15 16 7 21 -6 5 -14 18 -18 30 -5 15 -13 20 -26 18 -11 -2 -20 0
-20 5 0 5 -7 7 -15 4 -13 -5 -13 -9 0 -34 8 -16 15 -37 15 -46 0 -16 1 -16 14
1 11 16 11 21 0 33 -18 17 -18 17 8 19 16 2 19 0 9 -6 -9 -6 -10 -11 -2 -15 8
-5 8 -13 0 -28 -8 -14 -8 -23 0 -31 6 -6 11 -15 11 -21 0 -5 -6 -2 -13 8 -13
17 -14 18 -20 2 -5 -11 -3 -15 5 -10 7 4 8 3 4 -4 -4 -7 -13 -12 -21 -12 -25
0 -26 -20 -3 -43 13 -12 21 -21 19 -19 -3 1 -11 -8 -18 -20 -7 -13 -12 -17
-13 -10 0 6 -7 12 -15 12 -18 0 -20 -16 -4 -26 14 -8 -34 -55 -53 -52 -6 2
-13 -6 -15 -17 -1 -11 0 -14 3 -7 3 6 11 12 17 12 6 0 3 -8 -7 -17 -14 -13
-20 -15 -23 -5 -3 6 -8 10 -12 8 -4 -3 -8 5 -8 16 -1 12 -6 24 -10 27 -5 3
-17 19 -27 36 -11 17 -21 24 -24 17 -2 -6 -10 -12 -18 -12 -8 0 -13 -3 -13 -7
3 -20 -2 -34 -10 -28 -5 3 -12 1 -16 -5 -12 -19 -26 0 -15 20 14 27 12 34 -5
20 -8 -7 -13 -16 -10 -20 6 -10 -24 -22 -37 -14 -5 3 -2 11 8 18 15 11 13 12
-14 8 -18 -2 -32 -8 -32 -13 0 -5 5 -8 11 -7 24 6 18 -19 -6 -30 -32 -15 -35
-15 -35 -2 0 6 9 10 21 10 24 0 18 15 -9 22 -15 4 -19 0 -20 -24 -1 -28 1 -29
31 -22 18 3 38 11 45 16 9 8 12 6 12 -6 0 -11 -9 -16 -30 -16 -32 0 -33 -1
-24 -24 6 -15 8 -15 20 1 12 16 13 16 8 1 -4 -11 3 -22 20 -34 20 -13 24 -20
15 -30 -8 -10 -3 -21 23 -46 29 -29 32 -37 22 -56 -14 -29 -27 -41 -22 -22 2
11 -4 14 -22 13 -14 -2 -42 -3 -62 -4 -21 -1 -38 -5 -38 -9 0 -4 -11 -10 -25
-12 -14 -3 -25 -2 -25 2 0 4 11 13 25 20 14 7 25 20 25 29 0 13 -4 12 -18 -5
-12 -14 -26 -20 -47 -18 -16 1 -36 3 -42 3 -16 1 -17 31 -2 31 5 0 7 -4 4 -10
-3 -5 -1 -10 4 -10 6 0 11 6 12 13 0 9 2 9 6 -1 4 -10 11 -8 29 9 13 12 24 18
24 13 0 -5 4 -3 9 5 7 11 12 10 29 -7 14 -14 17 -23 9 -31 -8 -8 -7 -11 5 -11
12 0 16 7 13 20 -2 11 0 18 6 15 5 -4 9 -13 9 -21 0 -8 5 -14 10 -14 6 0 9 3
9 8 -3 20 2 32 15 32 12 0 12 5 3 30 -10 25 -13 27 -18 13 -3 -10 -2 -21 3
-24 5 -3 0 -9 -12 -12 -16 -4 -24 -1 -27 14 -4 14 -9 17 -18 9 -9 -7 -16 -6
-25 5 -7 8 -19 15 -26 15 -8 0 -14 4 -14 9 0 13 33 8 48 -7 20 -18 34 -5 21
20 -6 11 -14 17 -18 12 -9 -13 -31 -16 -31 -4 0 6 8 20 19 31 l18 20 6 -21 c3
-11 11 -20 19 -20 10 0 9 3 -2 10 -8 5 -11 10 -6 10 5 0 3 7 -4 15 -17 20 -46
0 -71 -48 -15 -29 -17 -42 -9 -52 15 -18 2 -25 -51 -27 -25 -1 -44 3 -47 10
-5 15 -29 16 -37 2 -4 -6 1 -7 11 -3 12 4 15 3 10 -5 -4 -7 -12 -12 -18 -12
-14 0 -48 -30 -48 -42 0 -4 7 -8 15 -8 9 0 15 9 15 22 0 36 14 10 16 -29 0
-25 8 -41 25 -54 l24 -19 -28 0 c-17 0 -27 5 -25 13 4 25 -14 57 -33 57 -10 0
-19 5 -19 12 0 6 -3 8 -7 5 -3 -4 -12 -2 -19 4 -7 6 -18 8 -24 4 -7 -5 -5 -11
7 -20 10 -7 21 -11 25 -9 4 2 9 0 13 -5 3 -6 12 -8 19 -5 17 6 31 -12 16 -21
-6 -4 -7 -11 -4 -17 4 -6 3 -8 -3 -5 -5 4 -19 -2 -31 -13 -14 -14 -22 -16 -26
-7 -3 8 -9 5 -17 -8 -7 -11 -11 -20 -9 -20 2 0 -2 -10 -8 -21 -9 -18 -8 -24 5
-35 14 -12 15 -11 9 9 -4 12 -3 22 2 22 5 0 9 -9 8 -20 0 -11 -4 -20 -9 -20
-19 -1 -67 32 -67 46 0 8 -5 12 -10 9 -6 -4 -8 -11 -5 -16 4 -5 2 -9 -4 -9 -5
0 -13 5 -16 10 -3 6 -1 10 5 10 6 0 8 5 5 10 -3 6 1 10 9 10 26 0 31 -4 30
-22 -1 -10 5 -18 12 -18 19 0 18 25 -2 45 -15 14 -14 15 10 11 21 -4 26 -1 26
15 0 21 15 26 26 8 5 -8 10 -6 16 5 5 9 13 14 18 11 4 -3 10 2 13 10 4 9 1 12
-9 8 -7 -3 -14 -1 -14 4 0 5 -6 10 -12 10 -7 0 -20 2 -28 4 -10 3 -14 -2 -12
-13 2 -10 -2 -18 -9 -18 -6 0 -8 -7 -5 -16 3 -8 2 -13 -3 -10 -4 3 -17 -1 -27
-9 -22 -17 -38 -19 -29 -5 12 19 -7 10 -25 -12 -17 -21 -19 -21 -25 -6 -9 23
0 48 17 48 10 0 10 -2 0 -9 -8 -5 -12 -17 -9 -27 3 -15 8 -11 20 18 19 42 21
52 9 44 -4 -2 -14 0 -22 6 -12 8 -12 9 2 4 24 -7 32 10 11 24 -16 10 -16 11 2
5 35 -12 49 -10 53 8 2 9 -1 17 -7 17 -6 0 -8 -7 -5 -15 4 -8 1 -15 -5 -15
-12 0 -14 20 -5 44 10 26 30 18 28 -11 -2 -56 -4 -63 -19 -63 -8 0 -15 -5 -15
-11 0 -5 4 -8 9 -4 5 3 13 0 17 -6 5 -8 1 -10 -14 -7 -15 4 -19 2 -15 -8 16
-42 69 28 56 75 -5 19 -2 20 39 16 43 -5 45 -4 77 41 21 30 27 45 16 40 -9 -3
-13 -2 -10 3 3 6 0 13 -7 18 -7 4 -19 16 -27 26 -12 15 -12 17 2 11 9 -3 24 1
32 10 15 14 15 16 1 16 -9 0 -16 -5 -16 -11 0 -8 -5 -8 -15 1 -8 7 -15 21 -15
32 0 14 -5 18 -16 14 -12 -4 -14 -1 -9 13 3 11 0 23 -6 27 -9 5 -10 2 -6 -9 4
-10 2 -17 -5 -17 -7 0 -6 -5 2 -15 7 -8 16 -12 21 -9 5 3 9 -5 8 -18 0 -13 -3
-18 -5 -12 -7 18 -46 4 -39 -13 3 -11 1 -13 -10 -9 -8 3 -15 1 -15 -4 0 -6 6
-10 13 -11 6 0 2 -5 -11 -12 -16 -7 -22 -17 -19 -29 3 -10 0 -18 -6 -18 -6 0
-7 -3 -4 -6 4 -4 18 1 31 10 32 20 36 20 36 -1 0 -12 3 -14 8 -6 5 7 13 9 21
4 11 -7 9 -10 -8 -16 -24 -7 -28 -22 -6 -22 8 0 13 3 10 6 -3 3 5 11 17 18 13
7 17 12 10 13 -7 0 -11 4 -8 9 3 5 -2 19 -12 31 -15 18 -19 20 -19 7 0 -10 4
-17 9 -17 4 0 8 -5 8 -10 0 -7 -6 -7 -19 0 -19 9 -23 51 -7 67 9 9 46 -33 46
-52 0 -8 4 -15 9 -15 9 0 8 -46 -1 -55 -2 -3 -21 -7 -41 -10 -27 -5 -37 -3
-37 7 0 10 -3 9 -11 -2 -9 -12 -10 -11 -6 7 3 15 1 20 -9 16 -8 -3 -21 -2 -30
1 -13 5 -14 9 -4 21 10 12 10 15 0 15 -8 0 -4 8 8 19 23 19 20 33 -6 24 -10
-5 -13 -3 -8 6 5 7 14 10 21 7 21 -8 36 14 24 37 -9 15 -8 18 3 11 28 -18 43
-12 19 7 -13 10 -18 19 -12 19 6 0 8 7 4 15 -3 9 -2 15 3 14 5 -1 14 0 19 1
25 7 93 4 88 -4 -3 -4 4 -5 17 -1 20 6 21 5 10 -15 -9 -16 -14 -19 -20 -10 -5
9 -9 9 -14 1 -4 -6 -2 -11 3 -11 6 0 11 -6 11 -14 0 -8 7 -17 16 -20 14 -5 15
-4 4 9 -17 20 -5 32 15 15 12 -10 15 -10 15 4 0 9 7 16 15 16 8 0 15 6 15 13
0 8 3 7 9 -3 12 -18 5 -31 -14 -23 -8 3 -15 0 -15 -7 0 -6 5 -8 10 -5 6 3 10
2 10 -4 0 -5 -6 -12 -12 -14 -7 -3 -3 -6 10 -6 13 -1 20 3 17 9 -3 6 -1 10 4
10 6 0 11 -6 11 -12 0 -23 -19 -43 -41 -44 -22 -1 -22 -1 -4 12 16 12 16 14 3
14 -9 0 -19 6 -22 13 -2 6 -2 -10 1 -38 2 -27 5 -58 5 -67 -1 -10 7 -16 18
-15 10 1 16 5 14 9 -3 4 -1 8 5 8 5 0 13 -4 16 -10 3 -5 12 -10 18 -9 9 0 8 2
-1 6 -6 2 -10 9 -6 14 3 5 0 9 -5 9 -6 0 -11 5 -11 11 0 5 3 8 8 5 4 -2 17 13
29 35 18 33 19 39 6 37 -9 -2 -18 3 -21 11 -3 9 0 11 9 6 8 -5 11 -5 7 0 -4 4
-3 16 3 26 6 12 6 19 0 19 -5 0 -13 -9 -16 -20 -4 -11 -11 -18 -16 -14 -6 4
-3 14 7 25 9 10 12 19 6 19 -6 0 -13 -6 -15 -12 -4 -9 -6 -8 -6 2 -1 8 -10 21
-21 27 -16 11 -18 10 -13 -3 3 -9 0 -20 -8 -25 -19 -12 -29 -11 -29 1 0 6 7
10 16 10 8 0 12 5 9 10 -4 6 -10 8 -15 5 -9 -6 -19 25 -13 43 3 6 9 12 15 12
6 0 7 -7 4 -15 -3 -9 -1 -15 7 -14 31 4 48 -2 41 -13 -4 -7 -4 -10 1 -6 4 4
15 2 23 -5 13 -10 14 -9 10 3 -2 8 -15 21 -29 27 -22 11 -19 18 5 14 5 -1 13
4 17 11 10 16 24 3 34 -31 4 -15 3 -21 -3 -17 -5 3 -12 0 -15 -8 -3 -8 0 -17
8 -20 8 -3 17 6 24 25 12 34 23 39 18 7 -2 -13 -2 -17 0 -11 3 10 9 10 25 2
16 -9 19 -8 15 3 -2 7 -9 12 -15 11 -5 -1 -9 5 -8 15 0 10 -6 17 -18 17 -11 0
-21 7 -23 15 -4 13 -3 13 6 0 10 -13 12 -13 21 0 6 10 10 11 10 3 0 -7 8 -13
18 -13 13 0 14 2 3 9 -7 5 -10 14 -6 21 5 9 2 10 -14 5 -11 -3 -21 -2 -21 3 0
18 13 21 41 7 15 -8 39 -15 53 -15 20 0 24 -4 20 -17 -5 -16 -4 -16 10 1 11
13 12 21 4 30 -15 16 -51 19 -42 3 5 -8 2 -7 -7 1 -11 10 -11 14 -1 21 7 4 10
15 6 24 -3 9 -2 17 4 17 6 0 8 9 5 20 -5 19 -2 20 27 15 29 -5 31 -4 16 10
-21 21 -20 26 2 19 15 -5 15 -4 -2 10 -10 8 -24 26 -30 38 -8 16 -21 23 -44
25 -30 1 -38 -8 -33 -39 0 -4 -8 -10 -19 -13 -11 -4 -20 -11 -20 -16 0 -5 14
-3 30 6 17 9 30 12 30 8 0 -15 -17 -34 -26 -31 -5 2 -9 -1 -9 -7 0 -5 3 -9 8
-7 4 1 7 -2 7 -8 0 -5 -12 -10 -26 -10 -20 0 -24 4 -19 19 4 13 0 23 -11 29
-14 8 -13 10 10 16 28 7 34 20 14 32 -6 4 -8 3 -5 -3 4 -6 0 -13 -8 -17 -8 -3
-17 0 -21 7 -4 7 -4 9 0 6 4 -4 19 4 33 17 14 13 32 24 38 24 7 0 23 13 36 30
25 32 45 40 35 15 -3 -8 -1 -15 5 -15 6 0 7 -5 3 -11 -3 -6 -15 -9 -25 -6 -11
3 -19 1 -19 -4 0 -9 14 -13 39 -10 7 2 10 -2 6 -8 -3 -6 -1 -11 5 -11 6 0 9 8
6 18 -7 22 28 60 39 42 3 -5 11 -8 16 -5 5 4 9 2 9 -3 0 -6 -7 -13 -16 -16 -8
-3 -12 -2 -9 4 3 6 2 10 -4 10 -20 0 -21 -20 -4 -46 l17 -27 -28 7 c-21 5 -27
4 -23 -6 2 -7 12 -12 21 -10 9 2 15 -3 14 -10 -2 -7 7 -17 20 -23 12 -5 22
-15 22 -22 0 -7 5 -13 11 -13 6 0 9 7 5 15 -4 11 2 15 27 15 24 0 28 3 17 10
-11 7 -7 8 15 6 17 -2 33 1 37 8 4 6 10 7 14 3 4 -3 1 -14 -7 -23 -13 -16 -12
-16 9 -5 12 6 22 16 22 22 0 6 5 7 10 4 6 -3 10 -11 10 -16 0 -6 -4 -7 -10 -4
-5 3 -10 1 -10 -4 0 -6 12 -11 28 -10 15 0 21 3 14 6 -6 2 -10 8 -7 13 7 12
-25 42 -40 37 -17 -7 -44 13 -27 20 6 2 10 9 6 14 -9 16 7 33 18 18 7 -10 8
-8 3 6 -8 24 -8 25 -5 50 l1 20 9 -20 c13 -31 12 -85 -2 -85 -9 0 -8 -4 2 -10
25 -16 31 -11 27 23 -2 17 -2 24 0 15 2 -9 11 -22 20 -30 14 -12 15 -11 5 8
-6 12 -8 24 -5 28 4 3 -3 16 -15 29 -12 12 -18 27 -14 33 11 17 40 24 46 11 2
-7 5 -4 5 6 1 19 21 24 21 5 0 -8 6 -6 17 5 22 22 43 22 38 0z m-315 -50 c0
-3 -6 -3 -14 0 -7 3 -19 0 -25 -6 -15 -15 -24 -3 -16 22 6 19 8 20 31 5 13 -9
24 -19 24 -21z m18 -62 c8 -5 12 -15 10 -24 -2 -12 -7 -10 -21 9 -18 24 -13
31 11 15z m-118 -15 c0 -3 -4 -8 -10 -11 -5 -3 -10 -1 -10 4 0 6 5 11 10 11 6
0 10 -2 10 -4z m-30 -16 c0 -5 -5 -10 -11 -10 -5 0 -7 5 -4 10 3 6 8 10 11 10
2 0 4 -4 4 -10z m57 -18 c6 -11 8 -23 5 -28 -10 -13 -32 -16 -32 -4 0 6 5 10
10 10 6 0 10 5 10 10 0 7 -6 7 -20 0 -16 -8 -20 -8 -20 4 0 10 6 13 17 9 11
-4 14 -3 9 5 -4 7 -3 12 1 12 5 0 13 -8 20 -18z m-33 -48 c3 -9 6 -23 6 -32 0
-20 -16 -5 -24 23 -3 13 -4 12 -2 -5 2 -14 7 -34 10 -45 5 -14 3 -13 -7 4 -12
20 -15 21 -20 6 -10 -24 -9 -37 2 -30 5 3 12 1 16 -4 3 -6 -7 -9 -25 -8 -16 1
-32 8 -35 16 -8 20 4 28 15 11 8 -12 10 -10 10 8 0 12 5 22 10 22 6 0 10 8 10
18 0 33 23 44 34 16z m-174 -14 c0 -5 -4 -10 -10 -10 -5 0 -10 5 -10 10 0 6 5
10 10 10 6 0 10 -4 10 -10z m630 -20 c-8 -5 -17 -7 -19 -4 -3 3 1 9 9 14 8 5
17 7 19 4 3 -3 -1 -9 -9 -14z m-590 -52 c0 -8 3 -9 8 -3 10 14 40 15 45 0 3
-6 2 -16 -1 -21 -11 -15 -72 -44 -72 -34 0 5 5 12 10 15 13 8 13 25 -1 25 -5
0 -8 -3 -6 -7 2 -5 -6 -19 -19 -32 -17 -18 -22 -20 -20 -8 1 9 12 27 24 40 12
13 19 27 15 30 -3 4 -1 7 5 7 7 0 12 -6 12 -12z m-104 -21 c8 3 14 0 14 -7 0
-6 -4 -8 -10 -5 -5 3 -10 1 -10 -5 0 -7 8 -9 20 -5 11 4 20 2 20 -4 0 -6 -15
-15 -32 -20 -18 -5 -27 -10 -20 -10 6 -1 12 -6 12 -12 0 -6 -7 -8 -16 -5 -8 3
-13 2 -9 -3 3 -5 -1 -11 -7 -14 -21 -7 -48 4 -48 20 0 12 2 12 16 -1 22 -22
25 -20 18 12 -3 15 -2 22 3 16 12 -17 34 9 22 27 -12 20 -11 35 2 22 6 -6 18
-9 25 -6z m616 -29 c-12 -12 -35 -1 -27 13 4 5 -2 9 -12 10 -11 0 -13 3 -5 6
7 3 19 -1 27 -7 12 -10 15 -9 16 6 1 18 1 18 6 0 3 -10 0 -23 -5 -28z m-676
-3 c-8 -8 -18 -15 -22 -15 -3 0 -1 7 6 15 7 8 17 15 22 15 5 0 3 -7 -6 -15z
m471 -95 c4 -8 5 -18 5 -22 -1 -5 2 -8 8 -8 5 0 7 -7 4 -15 -4 -9 0 -15 10
-15 20 0 20 -11 0 -36 -14 -18 -15 -18 -4 4 9 18 8 22 -5 22 -8 0 -15 9 -15
21 0 11 -4 18 -9 14 -6 -3 -8 -14 -6 -25 3 -13 0 -18 -7 -14 -7 4 -8 3 -4 -4
4 -6 14 -8 23 -5 11 4 14 3 9 -5 -4 -7 -14 -12 -22 -12 -17 0 -17 -5 -4 -31 7
-11 7 -19 1 -19 -5 0 -17 -3 -27 -7 -14 -5 -16 -2 -12 19 5 24 3 25 -19 15
-27 -12 -32 -29 -5 -21 13 5 14 4 3 -4 -9 -7 -10 -12 -2 -16 14 -9 14 -26 1
-26 -5 0 -10 7 -10 15 0 8 -9 19 -20 25 -18 10 -19 13 -5 26 8 9 15 22 15 30
0 8 4 14 10 14 5 0 7 -6 4 -13 -3 -9 4 -12 23 -11 16 1 29 3 31 3 2 1 -1 9 -7
19 -10 18 -71 26 -71 9 0 -5 -8 -6 -17 -3 -15 5 -15 4 1 -9 25 -19 7 -20 -19
-2 -22 17 -11 40 15 32 10 -3 21 -1 25 5 3 5 0 10 -7 10 -8 0 -14 9 -14 20 0
26 9 25 21 -2 11 -26 55 -34 55 -11 0 8 -5 11 -12 7 -7 -4 -8 -3 -4 5 10 15
27 3 25 -17 -3 -34 1 -36 16 -8 18 34 19 39 3 30 -7 -4 -8 -3 -4 4 4 7 1 12
-8 12 -14 0 -14 3 2 18 9 10 18 13 20 7 2 -5 6 -17 9 -25z m-302 -99 c-3 -12
-13 -21 -21 -21 -18 0 -18 9 3 32 20 22 27 17 18 -11z m-50 -30 c2 -11 0 -21
-4 -21 -10 0 -21 37 -13 44 8 8 12 2 17 -23z m-190 -1 c-10 -11 -21 -17 -24
-14 -3 3 3 12 13 20 28 20 32 17 11 -6z m-78 -41 c-4 -15 -2 -19 8 -15 12 4
12 0 3 -19 -6 -13 -16 -21 -21 -18 -7 4 -7 8 1 11 9 3 10 8 2 17 -6 7 -8 20
-4 29 9 23 17 20 11 -5z m373 11 c0 -13 -11 -13 -30 0 -12 8 -11 10 8 10 12 0
22 -4 22 -10z m45 -20 c3 -5 1 -10 -4 -10 -6 0 -11 5 -11 10 0 6 2 10 4 10 3
0 8 -4 11 -10z m-155 -35 c0 -8 -7 -15 -16 -15 -10 0 -13 -6 -9 -19 3 -12 0
-21 -10 -25 -19 -7 -33 23 -16 33 7 4 11 12 10 17 -3 19 2 24 21 24 11 0 20
-7 20 -15z m25 -35 c-3 -5 3 -16 12 -26 17 -17 17 -17 -5 -12 -14 4 -25 1 -31
-9 -5 -10 -11 -12 -15 -5 -4 6 -14 8 -24 5 -13 -4 -14 -3 -6 6 6 6 21 13 34
16 12 2 25 7 29 11 3 4 -2 4 -11 1 -11 -4 -18 -1 -18 6 0 7 9 13 20 14 11 1
18 -2 15 -7z m66 -27 c10 3 19 1 19 -4 0 -5 -4 -9 -10 -9 -19 0 -25 -2 -35
-10 -7 -6 -9 3 -6 28 4 28 6 31 9 14 3 -18 9 -23 23 -19z m73 -25 c-11 -13
-30 -24 -44 -25 -14 -1 -19 0 -12 3 6 3 9 11 6 16 -4 6 -2 8 4 5 15 -10 39 1
39 18 0 8 -4 15 -9 15 -4 0 -8 -8 -8 -17 0 -13 -3 -14 -12 -5 -9 9 -8 15 8 26
16 13 21 13 33 1 12 -11 11 -17 -5 -37z m36 37 c0 -8 -2 -15 -4 -15 -2 0 -6 7
-10 15 -3 8 -1 15 4 15 6 0 10 -7 10 -15z m-340 -37 c0 -6 -6 -5 -15 2 -8 7
-15 14 -15 16 0 2 7 1 15 -2 8 -4 15 -11 15 -16z m377 16 c-3 -3 -12 -4 -19
-1 -8 3 -5 6 6 6 11 1 17 -2 13 -5z m-43 -50 c-7 -6 -11 -14 -7 -17 3 -4 -1
-7 -11 -7 -10 0 -15 5 -11 13 4 6 0 4 -8 -5 -15 -19 -32 -25 -22 -8 4 6 -5 5
-19 -2 -27 -12 -34 -32 -16 -43 6 -4 7 -11 4 -17 -4 -6 -1 -9 7 -6 8 3 16 13
17 23 3 10 0 15 -7 11 -6 -4 -11 -3 -11 3 0 5 5 13 10 16 6 3 10 2 10 -4 0 -5
9 -8 20 -6 17 3 18 1 8 -15 -7 -10 -22 -24 -35 -31 -17 -9 -20 -15 -11 -20 17
-10 3 -23 -16 -16 -10 4 -13 13 -9 24 5 15 3 15 -10 -2 -9 -11 -17 -15 -17 -8
0 6 -9 9 -20 6 -11 -3 -17 -9 -14 -14 3 -5 10 -7 15 -4 5 4 9 -1 9 -11 0 -12
6 -15 25 -12 14 3 25 1 25 -3 0 -5 -7 -9 -16 -9 -8 0 -12 -4 -9 -10 3 -5 2
-10 -4 -10 -6 0 -8 -7 -5 -15 4 -9 0 -15 -8 -15 -8 0 -15 7 -15 15 0 8 4 15 9
15 4 0 8 5 8 11 0 5 -5 7 -10 4 -6 -3 -13 0 -16 9 -7 18 -30 11 -38 -11 -5
-13 -4 -14 8 -4 19 16 30 -2 22 -34 -5 -19 -3 -23 9 -19 10 4 13 2 10 -8 -6
-15 -42 -21 -50 -8 -2 4 2 13 10 20 19 16 20 44 1 37 -16 -6 -40 16 -29 26 3
4 1 7 -6 7 -7 0 -9 5 -6 10 13 21 -31 8 -54 -16 -24 -25 -43 -28 -47 -6 -1 7
0 8 3 2 2 -5 9 -10 14 -10 6 0 7 5 4 10 -3 6 1 10 11 10 14 0 14 2 3 16 -8 10
-15 12 -17 5 -2 -6 -8 -9 -13 -6 -5 4 -17 1 -26 -4 -10 -6 -12 -11 -5 -11 6 0
12 -5 12 -11 0 -6 -7 -8 -16 -5 -8 3 -12 2 -9 -4 3 -6 1 -10 -5 -10 -8 0 -10
9 -6 25 5 20 3 25 -11 25 -15 0 -16 -2 -3 -10 9 -6 10 -10 3 -10 -6 0 -15 5
-18 10 -3 6 -12 10 -18 10 -7 -1 -2 -9 10 -19 12 -10 19 -21 16 -25 -8 -7 -4
-8 69 -11 31 -1 55 2 52 7 -3 4 2 8 10 8 10 0 13 6 10 15 -4 8 -1 15 5 15 6 0
11 -9 11 -20 0 -11 7 -20 15 -20 20 0 19 -10 -2 -27 -16 -13 -16 -13 5 -3 26
13 45 4 23 -9 -21 -13 -46 -6 -43 12 1 8 -2 18 -8 22 -6 4 -9 1 -8 -6 2 -9 -8
-13 -29 -13 -35 0 -43 -10 -18 -20 8 -3 15 -13 15 -22 0 -11 -5 -14 -16 -10
-9 4 -22 2 -29 -4 -18 -15 -29 4 -21 36 5 17 2 24 -7 24 -10 0 -13 -8 -9 -25
2 -14 0 -25 -6 -25 -6 0 -8 -9 -5 -20 3 -11 10 -20 15 -20 5 0 6 6 2 13 -4 6
-3 8 1 4 13 -11 15 -36 4 -43 -5 -3 -9 1 -9 8 0 10 -2 10 -9 -1 -6 -10 -13
-10 -28 -2 -20 10 -33 6 -33 -11 0 -5 5 -6 10 -3 6 3 10 1 10 -5 0 -7 -6 -10
-12 -7 -7 2 -21 0 -32 -5 -13 -7 -16 -7 -12 1 4 6 3 11 -1 11 -5 0 -9 12 -10
28 -1 15 -4 39 -6 55 -3 15 -1 25 4 21 5 -3 7 -9 4 -14 -9 -15 6 -39 21 -33 9
3 14 -1 14 -13 0 -16 -2 -17 -10 -4 -8 12 -10 11 -10 -6 0 -31 11 -37 27 -14
8 11 18 18 22 16 4 -3 12 4 19 15 13 21 3 26 -16 7 -9 -9 -12 -9 -13 3 -1 7
-1 17 0 22 0 4 -6 7 -14 7 -8 0 -15 -5 -15 -11 0 -5 -4 -8 -10 -4 -5 3 -7 12
-4 19 3 8 1 17 -5 21 -6 3 -11 12 -11 18 0 7 5 4 11 -5 6 -11 16 -15 26 -11
11 4 14 3 9 -5 -4 -7 -2 -12 4 -12 7 0 10 7 6 15 -3 8 0 15 7 15 8 0 7 4 -3
10 -9 6 -17 5 -22 -3 -4 -6 -10 -8 -15 -4 -4 5 3 16 16 26 21 16 22 19 6 34
-20 21 -26 22 -19 3 3 -8 1 -17 -5 -21 -6 -3 -8 0 -5 9 3 8 -1 16 -11 18 -13
2 -13 5 4 15 16 10 23 10 34 -1 9 -9 19 -11 28 -5 8 5 12 9 9 10 -3 0 -14 3
-25 5 -11 3 -32 6 -48 6 -35 2 -23 13 23 22 26 4 31 3 20 -4 -12 -9 -10 -10
10 -8 16 2 24 -2 22 -9 -2 -12 10 -17 31 -14 4 0 7 -3 7 -9 0 -6 8 -10 18 -10
13 0 14 2 4 9 -10 6 -10 10 3 21 12 10 15 10 15 -4 0 -9 5 -16 11 -16 6 0 9 6
6 13 -2 6 5 23 17 35 15 18 17 23 6 22 -33 -5 -50 1 -50 18 0 14 2 15 10 2 9
-13 14 -8 12 12 -2 14 27 16 32 2 3 -9 1 -12 -4 -9 -6 3 -10 2 -10 -3 0 -6 7
-12 15 -16 8 -3 15 -1 15 5 0 5 6 16 12 23 11 11 16 11 34 -1 19 -12 24 -11
45 6 13 11 21 23 16 27 -4 4 -13 -1 -20 -11 -8 -10 -20 -15 -28 -12 -11 4 -10
6 3 6 9 1 20 10 23 22 5 16 9 18 21 8 8 -7 13 -18 10 -25 -3 -7 0 -15 7 -17 7
-2 8 -8 4 -13 -4 -5 -13 -2 -18 6 -9 13 -10 12 -6 -2 7 -22 -3 -30 -20 -17 -7
6 -13 8 -13 5 0 -4 -9 -2 -20 4 -14 8 -20 8 -20 0 0 -6 -6 -8 -12 -4 -8 4 -10
3 -5 -2 8 -9 12 -10 40 -13 8 -1 8 -4 -3 -11 -9 -6 -19 -5 -28 2 -18 16 -45
-11 -32 -32 8 -13 10 -12 10 3 0 29 26 19 46 -18 17 -33 44 -48 44 -24 0 5 -6
7 -12 4 -7 -4 -2 3 11 14 17 15 19 21 8 21 -8 0 -17 3 -20 8 -2 4 -2 2 -1 -5
2 -7 -1 -15 -6 -18 -6 -4 -10 1 -10 10 0 9 -4 13 -10 10 -5 -3 -10 -1 -10 4 0
6 3 11 8 11 4 0 18 3 31 7 18 5 22 3 16 -7 -5 -9 -4 -11 3 -6 21 13 52 15 52
4 0 -5 -7 -8 -15 -4 -8 3 -15 1 -15 -4 0 -12 17 -12 45 -1 19 8 19 8 -4 20
-12 7 -29 10 -37 7 -8 -3 -14 -1 -14 4 0 6 7 11 15 11 31 3 35 4 55 22 11 9
24 17 29 17 5 0 22 7 37 15 16 8 25 15 21 15 -5 0 -5 5 -1 12 5 8 10 6 15 -8
4 -12 2 -23 -7 -30z m-101 19 c-3 -7 -9 -10 -14 -7 -5 3 -9 0 -9 -5 0 -6 5
-11 11 -11 5 0 7 -4 4 -10 -11 -18 -22 -11 -20 13 4 33 4 34 19 34 8 0 12 -6
9 -14z m-163 -23 c0 -5 -4 -10 -10 -10 -5 0 -10 5 -10 10 0 6 5 10 10 10 6 0
10 -4 10 -10z m-225 -49 c3 -5 2 -12 -3 -15 -5 -3 -9 1 -9 9 0 17 3 19 12 6z
m165 -21 c0 -5 -4 -10 -10 -10 -5 0 -10 5 -10 10 0 6 5 10 10 10 6 0 10 -4 10
-10z m-173 -92 c-3 -8 -6 -5 -6 6 -1 11 2 17 5 13 3 -3 4 -12 1 -19z m230 -78
c-1 -11 -5 -20 -9 -20 -4 0 -8 9 -8 20 0 11 4 20 9 20 6 0 9 -9 8 -20z m68
-16 c9 -9 14 -19 11 -22 -10 -9 -86 -11 -91 -1 -4 5 1 6 10 3 9 -4 15 -3 14 2
-6 36 27 47 56 18z m-93 -28 c14 -20 8 -30 -6 -10 -12 16 -17 17 -28 6 -11
-11 -10 -12 6 -6 13 5 17 4 13 -3 -10 -16 22 -25 45 -12 11 6 35 13 54 15 31
4 33 2 23 -14 -12 -19 -49 -28 -49 -11 0 5 -4 9 -10 9 -5 0 -10 -7 -10 -16 0
-8 -4 -12 -10 -9 -15 9 -11 -7 6 -30 16 -20 16 -20 10 2 -4 12 -2 24 4 28 5 3
10 -2 10 -12 0 -15 2 -16 10 -3 21 34 19 -2 -4 -54 -22 -51 -28 -56 -45 -47
-26 14 -71 -20 -64 -49 3 -12 0 -20 -7 -20 -7 0 -10 7 -6 16 3 8 2 13 -3 10
-5 -3 -15 2 -22 11 -12 15 -12 16 3 10 22 -8 33 9 13 20 -18 10 -29 53 -13 53
5 0 8 -6 5 -14 -6 -14 10 -36 26 -36 5 0 4 7 -3 15 -10 12 -10 18 0 30 7 8 17
12 22 9 5 -4 8 4 6 17 -1 13 -7 24 -13 24 -5 0 -16 4 -22 8 -14 9 -53 -9 -53
-24 0 -6 -5 -7 -12 -3 -7 5 -9 0 -6 -14 4 -13 0 -23 -8 -26 -8 -3 -14 -11 -14
-18 0 -10 2 -10 9 1 6 9 11 10 15 2 9 -15 -22 -27 -35 -14 -7 7 -5 15 5 25 8
9 12 18 9 22 -3 3 -1 12 5 19 7 8 9 17 5 21 -4 4 1 4 12 0 14 -6 17 -4 13 8
-5 11 0 16 18 16 27 0 34 4 38 24 9 45 36 56 58 24z m138 20 c0 -3 -4 -8 -10
-11 -5 -3 -10 -1 -10 4 0 6 5 11 10 11 6 0 10 -2 10 -4z m-290 -100 c0 -7 -8
-20 -17 -27 -11 -10 -14 -10 -9 -1 4 6 2 12 -3 12 -6 0 -11 5 -11 11 0 8 5 7
15 -1 13 -11 14 -10 9 4 -3 9 -1 16 5 16 6 0 11 -6 11 -14z m-3 -118 c-3 -8
-6 -5 -6 6 -1 11 2 17 5 13 3 -3 4 -12 1 -19z m167 -12 c4 -22 2 -25 -8 -16
-8 6 -12 20 -9 31 7 25 10 21 17 -15z m-110 -100 c-4 -11 0 -13 14 -9 11 2 23
0 26 -6 5 -7 1 -8 -10 -4 -12 5 -15 3 -9 -6 6 -10 3 -11 -14 -2 -21 12 -29 41
-11 41 5 0 7 -6 4 -14z m52 -58 c-1 -13 -6 -23 -12 -23 -5 0 -8 6 -7 13 0 8
-5 11 -13 8 -8 -3 -14 -1 -14 4 0 5 10 11 23 13 12 2 23 5 24 6 1 0 1 -9 -1
-21z"/>
<path d="M5175 7390 c-4 -6 -3 -9 2 -8 4 2 8 -1 8 -7 0 -5 -3 -9 -6 -8 -3 1
-6 -5 -6 -13 0 -18 16 -18 23 0 3 8 11 13 18 10 7 -3 13 2 13 10 0 8 -6 12
-14 9 -7 -3 -13 0 -13 6 0 14 -17 14 -25 1z"/>
<path d="M5421 7374 c0 -11 3 -14 6 -6 3 7 2 16 -1 19 -3 4 -6 -2 -5 -13z"/>
<path d="M5057 7363 c-10 -9 -9 -23 1 -23 5 0 9 7 9 15 0 17 -1 18 -10 8z"/>
<path d="M5082 7331 c-11 -7 -11 -9 2 -14 10 -4 16 -1 16 8 0 17 -1 17 -18 6z"/>
<path d="M4980 7265 c0 -9 5 -15 11 -13 6 2 11 8 11 13 0 5 -5 11 -11 13 -6 2
-11 -4 -11 -13z"/>
<path d="M4891 7234 c0 -11 3 -14 6 -6 3 7 2 16 -1 19 -3 4 -6 -2 -5 -13z"/>
<path d="M5089 7211 c7 -5 11 -13 7 -19 -3 -5 1 -16 10 -23 13 -10 17 -10 25
2 9 15 -22 49 -45 49 -6 0 -5 -4 3 -9z"/>
<path d="M5134 7211 c3 -5 15 -7 26 -4 28 7 25 13 -6 13 -14 0 -23 -4 -20 -9z"/>
<path d="M5148 7175 c-12 -14 -29 -25 -37 -25 -10 0 -12 -3 -6 -8 14 -10 13
-37 -2 -37 -6 0 -15 -3 -19 -7 -16 -16 20 -7 39 10 11 9 17 12 13 5 -9 -17 32
-39 47 -24 7 7 7 15 -2 25 -7 8 -8 17 -3 20 12 7 12 55 1 62 -5 2 -18 -7 -31
-21z m32 6 c0 -5 -7 -17 -16 -25 -8 -9 -12 -16 -7 -16 5 0 9 -9 9 -20 0 -26
-9 -25 -21 2 -8 18 -6 27 10 44 24 26 25 27 25 15z"/>
<path d="M5372 7144 c-14 -10 -13 -11 11 -7 15 3 29 9 32 13 7 11 -25 8 -43
-6z"/>
<path d="M5273 7099 c-8 -8 -8 -20 -2 -36 6 -16 5 -22 -1 -18 -6 3 -10 2 -10
-4 0 -19 19 -21 29 -3 7 13 7 22 -1 30 -8 8 -7 13 5 18 9 3 14 10 11 15 -7 12
-18 11 -31 -2z"/>
<path d="M5180 7056 c0 -8 4 -17 8 -20 4 -2 8 4 8 15 0 10 -4 19 -8 19 -4 0
-8 -6 -8 -14z"/>
<path d="M4963 7043 c-34 -7 -28 -20 7 -15 17 2 30 8 30 13 0 5 -3 8 -7 8 -5
-1 -18 -4 -30 -6z"/>
<path d="M4866 7026 c6 -16 -35 -29 -51 -16 -7 6 -11 -3 -12 -31 -2 -37 -1
-38 19 -28 15 8 23 8 32 -2 8 -9 8 -10 -1 -5 -8 4 -13 2 -13 -6 0 -8 9 -14 19
-15 17 -1 18 2 9 28 -8 23 -15 28 -29 24 -11 -4 -19 -2 -19 5 0 6 4 9 9 6 5
-4 11 -1 13 6 4 10 10 10 31 1 19 -9 27 -9 29 -1 3 8 11 9 24 3 10 -4 23 -7
27 -6 16 3 1 -34 -23 -56 -15 -14 -18 -21 -9 -17 10 3 20 0 25 -7 4 -8 3 -10
-4 -5 -7 4 -12 3 -12 -2 0 -5 8 -12 18 -14 14 -4 18 0 17 14 -1 11 -7 23 -14
27 -10 6 -9 10 3 14 9 4 16 16 16 28 0 26 21 21 35 -9 5 -12 18 -22 27 -22 16
0 16 -3 6 -21 -10 -17 -10 -23 0 -26 19 -7 14 -19 -8 -20 -22 -2 -25 9 -10 38
13 24 2 25 -16 2 -13 -17 -14 -17 -7 2 3 11 2 16 -3 12 -4 -4 -13 -27 -19 -51
-9 -36 -8 -48 6 -75 14 -27 18 -29 29 -16 7 8 18 15 24 15 14 0 37 36 29 44
-11 10 -45 7 -38 -4 4 -6 11 -7 17 -4 7 4 8 2 4 -5 -4 -6 -13 -8 -19 -4 -7 4
-22 6 -34 4 -17 -2 -21 1 -17 13 4 11 19 16 45 16 21 0 39 5 39 10 0 13 32 9
43 -5 5 -6 7 -4 4 5 -2 8 -14 16 -26 18 -27 4 -39 31 -20 43 10 6 10 9 2 9 -7
0 -28 16 -47 35 -20 19 -31 35 -26 35 4 0 17 3 27 6 15 5 15 4 3 -5 -8 -5 -11
-13 -7 -17 3 -4 14 -1 24 7 15 12 16 12 10 -5 -6 -14 -4 -17 9 -12 8 3 20 6
25 6 5 0 9 4 9 10 0 5 -8 7 -17 3 -15 -5 -16 -3 -5 8 18 19 40 -4 23 -25 -7
-8 -11 -23 -8 -33 3 -14 6 -13 15 10 7 16 12 38 12 49 0 17 -5 20 -30 16 -16
-2 -31 -1 -32 4 -2 5 -20 2 -39 -6 -20 -8 -40 -12 -44 -8 -5 4 -5 1 0 -7 10
-18 -56 -5 -71 15 -14 18 -35 18 -28 0z m28 -14 c3 -5 -1 -9 -9 -9 -8 0 -12 4
-9 9 3 4 7 8 9 8 2 0 6 -4 9 -8z"/>
<path d="M4867 6975 c3 -8 9 -12 14 -9 12 7 11 11 -5 17 -10 4 -13 1 -9 -8z"/>
<path d="M4896 6965 c-19 -29 -16 -41 10 -31 9 3 14 13 10 21 -3 8 0 17 6 21
7 4 8 3 4 -4 -4 -7 -2 -12 4 -12 7 0 10 5 8 12 -8 22 -25 19 -42 -7z"/>
<path d="M4986 6955 c4 -8 1 -15 -5 -15 -6 0 -11 -5 -11 -11 0 -8 4 -9 13 0 8
6 16 8 20 5 3 -3 3 3 0 15 -3 12 -9 21 -14 21 -5 0 -6 -7 -3 -15z"/>
<path d="M5050 6960 c0 -5 5 -10 10 -10 6 0 10 5 10 10 0 6 -4 10 -10 10 -5 0
-10 -4 -10 -10z"/>
<path d="M4863 6913 c-24 -5 -30 -18 -14 -27 5 -4 12 0 14 6 4 8 6 7 6 -3 1
-9 -6 -19 -14 -23 -8 -3 -14 -2 -14 2 3 19 -3 23 -17 11 -13 -11 -17 -10 -26
4 -5 10 -13 15 -18 12 -5 -3 -11 -1 -15 5 -3 5 -11 10 -17 10 -6 0 1 -11 16
-25 27 -25 37 -46 11 -25 -9 7 -18 11 -20 8 -10 -10 24 -30 37 -22 7 5 21 7
30 6 10 -2 27 2 38 8 19 10 20 9 14 -14 -3 -15 -2 -26 2 -26 5 0 10 12 11 26
0 14 7 31 13 38 10 8 11 6 7 -13 -4 -17 -3 -21 5 -13 8 8 17 8 30 1 11 -6 18
-6 18 0 0 5 -9 13 -20 16 -11 3 -20 11 -20 16 0 5 -7 9 -15 9 -8 0 -15 -5 -15
-12 0 -6 -3 -8 -6 -5 -4 4 -1 13 6 22 7 8 9 14 4 14 -5 -1 -19 -4 -31 -6z"/>
<path d="M5070 6910 c0 -5 5 -10 11 -10 5 0 7 5 4 10 -3 6 -8 10 -11 10 -2 0
-4 -4 -4 -10z"/>
<path d="M4647 6865 c-4 -8 -2 -17 3 -20 6 -4 10 3 10 14 0 25 -6 27 -13 6z"/>
<path d="M4463 6807 c1 -7 6 -15 10 -18 5 -3 10 -15 11 -25 2 -10 7 -18 12
-17 13 2 17 23 5 23 -6 0 -11 9 -11 19 0 10 -7 21 -15 25 -8 3 -14 0 -12 -7z"/>
<path d="M4681 6791 c-19 -12 -9 -46 14 -46 14 0 19 6 17 20 -5 27 -15 36 -31
26z m19 -31 c0 -5 -2 -10 -4 -10 -3 0 -8 5 -11 10 -3 6 -1 10 4 10 6 0 11 -4
11 -10z"/>
<path d="M4527 6716 c-22 -23 -22 -37 3 -43 11 -3 20 -12 20 -21 0 -8 2 -13 5
-11 2 3 1 25 -3 49 -7 41 -8 42 -25 26z m13 -21 c0 -8 -4 -15 -10 -15 -5 0 -7
7 -4 15 4 8 8 15 10 15 2 0 4 -7 4 -15z"/>
<path d="M4761 6686 c-11 -13 -11 -16 0 -16 10 0 11 -2 2 -8 -8 -5 -9 -13 -3
-22 7 -11 10 -8 15 13 10 37 3 53 -14 33z"/>
<path d="M4829 6613 c10 -19 9 -21 -9 -18 -11 2 -22 0 -25 -6 -4 -5 10 -9 29
-9 41 0 45 9 15 36 -22 19 -22 19 -10 -3z"/>
<path d="M4676 6594 c-8 -21 -8 -24 3 -24 12 0 22 28 12 35 -5 3 -12 -2 -15
-11z"/>
<path d="M4660 6929 c0 -5 5 -7 10 -4 6 3 10 8 10 11 0 2 -4 4 -10 4 -5 0 -10
-5 -10 -11z"/>
<path d="M4515 6350 c-4 -6 -11 -8 -16 -5 -5 4 -9 1 -9 -4 0 -14 17 -14 25 -1
4 6 10 8 15 5 5 -3 11 -1 15 5 3 5 -1 10 -9 10 -8 0 -18 -5 -21 -10z"/>
<path d="M4357 6293 c-4 -3 -2 -12 4 -19 6 -8 8 -22 4 -31 -13 -30 -14 -44 -2
-40 19 6 27 58 13 78 -7 11 -16 16 -19 12z"/>
<path d="M4443 6240 c2 -8 12 -16 23 -17 13 -2 15 -1 4 4 -8 3 -19 11 -23 17
-6 7 -7 6 -4 -4z"/>
<path d="M4545 6200 c-3 -5 3 -10 15 -10 12 0 18 5 15 10 -3 6 -10 10 -15 10
-5 0 -12 -4 -15 -10z"/>
<path d="M4437 6136 c-4 -11 -1 -16 11 -16 9 0 23 -10 31 -22 12 -20 11 -24
-14 -44 -18 -14 -23 -24 -15 -29 13 -8 13 -8 28 20 9 16 11 17 12 4 0 -24 27
-31 45 -13 17 18 20 34 5 34 -5 0 -9 -5 -7 -11 1 -6 -4 -14 -11 -16 -8 -3 -10
1 -6 11 5 12 2 15 -10 10 -12 -5 -15 -2 -10 10 3 9 10 13 15 10 14 -8 10 9 -7
31 -16 19 -16 19 -10 -5 l7 -25 -15 25 c-8 14 -18 23 -22 22 -4 -2 -10 2 -14
8 -5 8 -9 7 -13 -4z"/>
<path d="M5716 7611 c-3 -5 3 -11 15 -14 16 -4 18 -3 8 9 -13 16 -16 17 -23 5z"/>
<path d="M5678 7593 c10 -4 9 -8 -4 -17 -12 -9 -14 -15 -5 -20 6 -4 14 0 17 8
3 9 10 14 14 11 5 -3 12 0 16 6 4 7 3 9 -4 5 -6 -3 -13 -2 -17 4 -3 5 -12 10
-18 9 -8 0 -8 -2 1 -6z"/>
<path d="M5887 7564 c6 -16 19 -18 27 -5 3 5 -3 11 -13 14 -14 3 -18 1 -14 -9z"/>
<path d="M5676 7525 c-3 -8 -1 -15 4 -15 6 0 10 5 10 11 0 5 5 7 12 3 7 -4 8
-3 4 4 -10 16 -23 15 -30 -3z"/>
<path d="M5454 7514 c24 -17 37 -18 30 -1 -2 7 -15 13 -27 14 -21 2 -21 1 -3
-13z"/>
<path d="M5750 7494 c0 -8 -5 -12 -10 -9 -16 10 -55 -27 -54 -50 1 -11 2 -26
3 -32 1 -7 6 -13 12 -13 7 0 9 10 5 25 -4 14 -2 25 3 25 6 0 8 8 5 18 -4 11 1
8 15 -8 14 -18 21 -21 21 -10 1 10 4 9 11 -5 8 -17 8 -16 3 5 -3 14 -5 35 -5
48 0 12 -1 22 -4 22 -3 0 -5 -7 -5 -16z m-5 -24 c3 -5 2 -10 -4 -10 -5 0 -13
5 -16 10 -3 6 -2 10 4 10 5 0 13 -4 16 -10z"/>
<path d="M5399 7493 c0 -4 -2 -18 -3 -30 -1 -12 1 -20 6 -17 5 4 7 12 4 19 -3
8 0 15 7 18 8 2 8 5 -1 11 -7 4 -12 4 -13 -1z"/>
<path d="M5545 7481 c-2 -5 4 -11 15 -14 11 -3 20 -2 20 3 0 12 -28 21 -35 11z"/>
<path d="M5323 7430 c-1 -11 3 -23 9 -26 6 -4 8 -2 4 4 -3 5 -1 12 5 14 7 2 7
8 -3 15 -11 10 -14 8 -15 -7z"/>
<path d="M5420 7446 c0 -2 7 -9 15 -16 9 -7 15 -8 15 -2 0 5 -7 12 -15 16 -8
3 -15 4 -15 2z"/>
<path d="M5720 7430 c0 -5 5 -10 11 -10 5 0 7 5 4 10 -3 6 -8 10 -11 10 -2 0
-4 -4 -4 -10z"/>
<path d="M5725 7403 c-21 -21 -18 -36 5 -30 11 3 20 1 20 -4 0 -5 5 -9 10 -9
19 0 10 29 -10 33 -13 3 -11 4 6 3 15 0 29 4 31 9 5 16 -46 14 -62 -2z"/>
<path d="M5709 7334 c-5 -15 -7 -30 -3 -33 4 -3 9 0 11 7 3 6 10 9 16 6 8 -5
8 -2 0 7 -16 16 -17 29 -2 29 5 0 7 -4 4 -10 -3 -5 1 -10 9 -10 8 0 18 5 22
12 4 6 3 8 -4 4 -6 -3 -13 -2 -17 4 -11 17 -25 11 -36 -16z"/>
<path d="M5348 7313 c-19 -22 -13 -43 13 -43 12 0 16 -5 13 -15 -4 -8 -1 -15
5 -15 14 0 14 16 1 41 -7 13 -7 19 0 19 5 0 10 -5 10 -11 0 -8 5 -8 15 1 8 7
15 9 15 4 0 -4 6 1 14 12 19 26 11 31 -14 9 -19 -17 -21 -17 -38 -1 -18 15
-20 15 -34 -1z m13 -20 c-8 -15 -10 -15 -11 -2 0 17 10 32 18 25 2 -3 -1 -13
-7 -23z"/>
<path d="M5517 7323 c-13 -13 -7 -20 18 -20 14 0 25 0 23 1 -2 1 -10 7 -19 14
-9 6 -19 9 -22 5z"/>
<path d="M5571 7307 c0 -12 3 -16 6 -9 4 10 9 10 23 -3 17 -16 18 -16 16 1 -2
9 -12 21 -24 25 -19 7 -22 5 -21 -14z"/>
<path d="M5420 7265 c0 -8 4 -15 10 -15 5 0 7 7 4 15 -4 8 -8 15 -10 15 -2 0
-4 -7 -4 -15z"/>
<path d="M5980 7035 c0 -8 5 -15 10 -15 6 0 10 7 10 15 0 8 -4 15 -10 15 -5 0
-10 -7 -10 -15z"/>
<path d="M4650 7029 c0 -5 5 -7 10 -4 6 3 10 8 10 11 0 2 -4 4 -10 4 -5 0 -10
-5 -10 -11z"/>
<path d="M5950 7024 c0 -8 5 -12 10 -9 6 3 10 10 10 16 0 5 -4 9 -10 9 -5 0
-10 -7 -10 -16z"/>
<path d="M5385 6690 c10 -11 20 -20 23 -20 3 0 -3 9 -13 20 -10 11 -20 20 -23
20 -3 0 3 -9 13 -20z"/>
<path d="M5362 6668 c2 -6 10 -14 16 -16 7 -2 10 2 6 12 -7 18 -28 22 -22 4z"/>
<path d="M5401 6636 c-1 -12 4 -16 14 -13 8 4 17 2 20 -3 4 -6 1 -10 -5 -10
-6 0 -8 -5 -4 -11 3 -6 0 -15 -7 -20 -11 -7 -11 -9 -1 -9 18 0 32 42 20 57 -6
7 -14 11 -18 8 -5 -3 -11 1 -13 7 -3 8 -6 5 -6 -6z"/>
<path d="M5273 6586 c-28 -27 -29 -35 -3 -33 10 1 17 3 15 5 -2 3 0 13 6 24
15 28 8 29 -18 4z"/>
<path d="M5161 6551 c-131 -160 -269 -372 -332 -512 l-17 -36 42 -49 c22 -26
37 -46 31 -43 -5 3 -18 -2 -27 -13 -10 -10 -14 -18 -9 -18 6 0 7 -15 4 -34 -4
-29 -2 -34 13 -33 11 1 18 -4 17 -10 -2 -8 6 -12 20 -9 17 2 22 10 23 32 2 50
3 52 37 50 27 -1 32 2 32 22 0 12 -5 21 -10 20 -6 -2 -9 -11 -9 -20 1 -19 -5
-22 -30 -12 -25 10 -19 26 6 18 20 -6 19 -3 -10 30 -17 20 -32 41 -32 46 0 6
-10 10 -22 9 -22 0 -22 -1 -3 -9 11 -5 16 -9 11 -9 -5 -1 -2 -9 5 -18 13 -16
12 -17 -3 -5 -9 7 -18 9 -20 5 -3 -4 -4 -3 -2 4 1 6 0 14 -4 17 -13 14 -9 33
6 32 9 0 17 4 17 9 2 34 56 68 71 44 3 -5 2 -9 -3 -8 -4 1 -17 1 -28 0 -16 -1
-17 -3 -6 -10 23 -15 49 4 46 33 -2 16 1 23 9 20 7 -3 11 -17 10 -32 -1 -24 2
-27 32 -29 19 -1 32 2 29 7 -9 15 15 52 30 47 9 -4 11 1 8 14 -3 10 -10 19
-15 19 -5 0 -6 -4 -3 -10 3 -5 1 -10 -5 -10 -7 0 -9 12 -6 32 5 30 20 48 42
48 15 0 26 -27 13 -34 -5 -2 -4 -3 3 -2 7 2 13 11 13 22 0 10 4 22 8 25 13 9
-3 37 -24 42 -13 4 -19 1 -16 -6 3 -7 10 -11 16 -9 6 1 11 -2 11 -8 0 -6 -5
-10 -11 -10 -6 0 -23 -9 -39 -20 -15 -11 -29 -17 -32 -15 -2 2 -9 -5 -16 -15
-7 -12 -8 -20 -2 -20 5 0 10 5 10 12 0 6 2 9 5 6 11 -11 -7 -37 -21 -31 -9 3
-13 11 -11 17 3 7 -1 20 -9 31 -8 10 -14 13 -14 6 0 -7 -4 -10 -9 -7 -9 6 -21
-16 -21 -37 0 -7 5 -4 11 6 5 9 14 17 20 17 14 0 -22 -35 -44 -43 -10 -4 -15
-11 -12 -17 3 -5 0 -10 -7 -10 -7 0 -19 -9 -26 -20 -7 -11 -20 -20 -29 -20
-15 0 -15 1 2 13 12 10 14 16 7 21 -7 4 -12 2 -12 -3 0 -6 -5 -11 -10 -11 -7
0 -7 6 0 19 7 13 18 18 34 15 14 -2 29 3 38 14 19 22 29 60 17 67 -5 4 -7 14
-5 23 10 44 20 61 47 81 24 18 32 19 48 9 13 -8 18 -20 16 -37 -2 -14 -4 -32
-4 -40 -1 -12 -3 -12 -13 1 -13 16 -29 22 -55 19 -25 -2 -12 -17 14 -17 14 1
28 -5 31 -13 3 -10 0 -12 -13 -7 -15 5 -16 4 -5 -9 11 -13 15 -13 21 -3 5 7 9
9 9 4 0 -6 5 -5 11 1 6 6 17 9 23 7 7 -3 12 7 14 23 1 22 0 25 -9 13 -9 -12
-10 -11 -6 8 3 14 1 20 -5 15 -7 -4 -8 -1 -3 6 5 9 10 10 18 2 13 -13 30 -15
23 -2 -3 5 1 15 10 22 8 7 14 8 13 3 -3 -16 23 -74 33 -74 7 0 7 -4 1 -12 -15
-19 -22 -57 -13 -63 10 -6 22 23 15 35 -3 5 0 12 6 16 8 4 9 3 5 -4 -4 -7 -4
-12 1 -12 11 0 40 20 29 20 -5 0 -2 8 6 18 14 16 18 30 19 77 0 16 2 17 9 5 5
-8 6 -18 4 -22 -3 -4 0 -8 7 -8 6 0 9 8 6 20 -7 26 -1 26 13 0 9 -17 7 -22
-12 -30 -16 -6 -18 -9 -6 -9 10 -1 16 -9 15 -21 -1 -22 -17 -28 -17 -7 -1 6
-9 1 -20 -12 -22 -25 -18 -43 8 -39 10 2 17 -5 19 -17 1 -11 0 -14 -3 -7 -3 6
-13 12 -22 11 -11 0 -12 -2 -4 -6 6 -2 10 -9 6 -14 -3 -5 -2 -9 3 -8 15 4 43
-13 37 -22 -3 -5 0 -9 5 -9 12 0 15 -43 4 -54 -8 -8 -9 -13 -12 -42 -1 -13 -3
-14 -15 -1 -8 8 -25 13 -38 12 -19 -2 -23 3 -25 25 -1 20 3 29 17 33 21 5 28
27 9 27 -5 0 -7 -4 -4 -10 3 -5 2 -10 -4 -10 -5 0 -10 8 -10 18 1 9 -2 28 -6
42 -5 21 -3 20 9 -5 16 -34 21 -20 6 20 -8 22 -12 24 -24 13 -8 -8 -11 -19 -6
-28 4 -8 7 -26 6 -40 -1 -19 -7 -26 -26 -27 -24 -3 -24 -2 -3 6 37 16 15 60
-31 61 -10 0 -25 8 -32 18 -12 15 -13 15 -14 1 0 -9 7 -22 15 -29 9 -7 15 -20
14 -29 -3 -29 1 -36 12 -21 9 13 10 12 5 -2 -5 -17 3 -21 39 -21 6 0 11 -8 11
-17 0 -10 -6 -16 -13 -13 -7 3 -13 10 -13 17 0 6 -4 5 -9 -3 -7 -11 -11 -9
-21 9 -9 17 -15 19 -23 10 -9 -8 -8 -14 6 -21 21 -12 22 -26 2 -45 -12 -13
-15 -12 -25 7 -7 11 -9 23 -6 26 3 3 8 -2 12 -11 6 -15 24 -13 24 4 0 14 -29
20 -52 10 -13 -5 -18 -9 -12 -9 14 -1 14 -32 1 -49 -7 -9 -13 -9 -23 -1 -11 9
-14 8 -11 -7 1 -11 7 -25 11 -33 6 -9 5 -12 -2 -7 -6 3 -13 2 -17 -4 -3 -5 2
-11 12 -12 10 0 25 -2 33 -2 28 -3 47 16 42 41 -3 17 0 24 9 22 23 -5 59 12
59 27 0 19 -10 18 -26 -3 -12 -16 -12 -16 -7 5 6 23 19 27 42 13 12 -8 12 -12
2 -24 -8 -10 -9 -17 -1 -22 5 -3 10 -1 10 6 0 8 5 7 17 -2 15 -13 15 -12 5 7
-10 18 -8 21 11 19 37 -2 65 -15 71 -32 6 -14 8 -14 25 1 15 14 18 14 18 1 0
-8 -4 -15 -8 -15 -12 0 -39 -30 -39 -43 0 -7 4 -6 10 3 6 9 10 10 10 3 0 -7
11 -10 28 -8 21 3 30 -2 37 -18 12 -26 41 -38 32 -13 -4 11 -3 15 4 10 8 -4 9
1 4 15 -4 12 -2 21 4 21 14 0 7 43 -7 48 -7 2 -12 -6 -12 -17 0 -12 -5 -21
-11 -21 -8 0 -8 -4 0 -14 8 -10 9 -16 1 -21 -5 -3 -10 1 -10 9 0 9 -5 16 -12
16 -6 0 -4 6 7 13 18 14 14 37 -8 37 -8 0 -8 -3 0 -11 8 -8 6 -16 -8 -30 -20
-20 -34 -26 -24 -9 4 6 -1 7 -11 3 -12 -4 -15 -3 -10 5 4 7 13 12 20 12 8 0
13 13 13 35 0 37 -6 42 -24 24 -6 -6 -16 -8 -22 -5 -14 9 -14 26 0 26 5 0 7
-4 4 -10 -3 -5 -2 -10 4 -10 6 0 13 16 17 35 4 23 12 35 23 36 10 0 11 2 4 6
-24 9 -13 20 20 21 30 1 31 0 13 -14 -14 -10 -16 -14 -5 -14 10 0 11 -2 2 -8
-9 -6 -7 -11 7 -20 22 -14 25 -9 10 18 -7 13 -7 21 0 25 21 13 -9 34 -38 26
-20 -6 -29 -16 -36 -44 -5 -20 -13 -37 -17 -37 -4 0 -4 14 1 30 5 17 6 30 2
30 -14 0 34 29 49 30 9 0 23 7 30 17 13 15 12 15 -10 4 -13 -7 -21 -9 -17 -3
9 15 -32 62 -49 55 -8 -3 -15 0 -15 7 0 6 5 8 10 5 6 -3 10 0 10 8 0 11 -7 13
-22 10 -13 -3 -21 -3 -18 0 3 3 18 8 34 11 15 3 33 10 40 15 7 6 17 7 21 3 5
-4 5 -2 1 5 -3 6 -2 14 3 17 5 3 11 -1 14 -8 3 -8 15 -20 26 -26 17 -9 21 -8
21 5 0 9 -4 14 -8 11 -5 -3 -9 1 -9 9 0 8 4 15 7 15 11 0 30 -26 25 -34 -3 -3
1 -2 7 4 9 8 9 13 0 22 -20 20 -13 32 8 13 11 -10 20 -13 20 -7 0 16 -37 35
-45 22 -8 -14 -34 11 -28 27 3 7 0 13 -7 13 -6 0 -8 5 -5 11 4 6 13 8 21 5 12
-5 12 -2 2 17 -7 12 -11 30 -9 40 1 9 -3 17 -9 17 -7 0 -10 -6 -7 -13 4 -10
-1 -13 -17 -10 -27 5 -32 -22 -9 -48 12 -14 11 -17 -7 -22 -17 -4 -20 0 -20
29 0 27 -4 34 -19 34 -11 0 -23 5 -26 10 -3 6 -1 10 6 10 10 0 10 3 2 11 -13
13 -36 2 -27 -12 3 -6 -3 -5 -15 3 -19 12 -19 13 -3 20 14 5 13 7 -6 7 -13 1
-21 5 -18 9 2 4 -4 14 -16 21 -11 7 -17 8 -13 2 3 -6 2 -11 -4 -11 -5 0 -11 5
-13 12 -3 7 -7 5 -11 -6 -4 -10 -3 -15 3 -11 6 3 10 4 10 1 0 -3 -9 -10 -21
-16 -19 -11 -20 -10 -9 9 12 24 6 41 -16 41 -8 0 -14 5 -14 10 0 7 6 7 19 0
28 -15 30 -13 25 19 -4 25 0 32 25 46 33 17 40 32 16 32 -9 0 -33 -21 -54 -46z
m-7 -85 c-3 -8 -12 -12 -20 -9 -21 8 -17 23 6 23 13 0 18 -5 14 -14z m78 -68
c-6 -6 -12 -6 -16 1 -4 6 -2 11 5 11 16 0 3 13 -17 16 -8 1 -14 -3 -13 -9 1
-7 -3 -23 -9 -37 l-12 -25 2 30 c1 17 11 40 22 53 l20 23 14 -27 c9 -17 10
-30 4 -36z m-132 32 c-6 -11 -12 -20 -14 -20 -2 0 -2 9 1 20 3 11 9 20 15 20
5 0 4 -9 -2 -20z m56 -20 c19 0 7 -25 -19 -39 -12 -6 -15 -10 -7 -7 19 5 57
-21 45 -31 -4 -5 -10 -2 -12 5 -3 6 -9 12 -15 12 -6 0 -8 -7 -4 -15 3 -8 1
-15 -5 -15 -6 0 -7 -5 -3 -12 4 -6 3 -8 -3 -5 -6 4 -16 0 -23 -8 -29 -34 -77
-5 -66 40 4 15 2 25 -4 25 -6 0 -8 -4 -5 -10 3 -5 2 -10 -4 -10 -6 0 -8 -7 -5
-15 4 -9 0 -15 -9 -15 -9 0 -21 -8 -26 -17 -6 -10 -11 -15 -11 -11 0 4 14 27
30 52 20 29 36 43 45 39 8 -3 15 0 15 6 0 6 -5 11 -11 11 -5 0 -7 5 -3 11 5 8
10 6 16 -5 5 -9 14 -16 20 -16 6 0 8 3 5 7 -9 9 13 34 24 27 5 -3 9 1 10 8 0
10 2 10 6 1 2 -7 11 -13 19 -13z m144 -35 c0 -1 -10 0 -23 2 -14 3 -29 -2 -36
-11 -12 -14 -10 -16 8 -16 11 0 21 5 21 12 0 9 3 9 12 0 14 -14 42 -16 33 -2
-3 6 -1 10 4 10 6 0 9 -10 7 -22 -3 -13 -5 -27 -5 -31 -1 -5 -5 -5 -11 -2 -5
3 -10 1 -10 -4 0 -6 7 -11 15 -11 8 0 15 6 15 13 0 8 4 7 10 -3 5 -8 10 -10
10 -5 0 6 12 11 28 13 27 1 27 1 4 -11 -12 -7 -20 -16 -16 -20 10 -9 -13 -34
-36 -40 -16 -4 -18 -2 -10 13 5 9 6 20 3 24 -10 10 -33 7 -33 -5 0 -5 4 -8 9
-5 5 4 7 -3 4 -14 -3 -11 -13 -20 -22 -20 -11 0 -12 3 -4 8 14 9 12 44 -2 54
-5 4 -19 8 -31 8 -16 0 -21 7 -22 31 0 18 5 32 14 36 8 3 14 12 14 19 0 12 4
12 25 -2 14 -9 25 -17 25 -19z m-84 -39 c0 -47 -3 -57 -22 -67 -13 -6 -31 -8
-41 -5 -16 7 -16 9 -2 19 9 7 14 17 12 23 -2 6 3 14 10 17 11 4 13 0 9 -16 -3
-12 -10 -25 -16 -29 -7 -5 -7 -8 2 -8 7 0 15 7 18 15 4 8 11 12 17 8 6 -4 7
-1 1 8 -12 19 -11 89 1 89 6 0 10 -24 11 -54z m188 35 c7 -11 -14 -20 -32 -13
-11 4 -11 6 0 13 17 11 26 11 32 0z m-4 -93 c0 -12 -3 -18 -7 -14 -11 10 -12
36 -2 36 5 0 9 -10 9 -22z m-180 -18 c0 -5 -4 -10 -10 -10 -5 0 -10 5 -10 10
0 6 5 10 10 10 6 0 10 -4 10 -10z m-10 -20 c11 -7 11 -10 2 -10 -7 0 -11 -4
-8 -9 10 -15 -22 -20 -34 -5 -10 11 -10 14 1 14 11 0 11 2 -1 10 -12 8 -12 10
5 10 11 0 27 -5 35 -10z m56 -49 c11 9 14 9 14 0 0 -6 8 -15 18 -18 23 -9 42
-29 42 -45 0 -11 -2 -11 -9 0 -6 10 -10 9 -14 -7 -3 -12 -11 -21 -17 -21 -9 0
-7 8 4 24 9 14 12 27 7 30 -5 3 -11 -3 -14 -14 -3 -11 -13 -20 -22 -20 -16 0
-16 2 0 26 9 15 12 23 6 20 -13 -9 -54 18 -44 28 4 4 9 2 11 -4 3 -8 8 -8 18
1z m-346 -21 c-6 -11 -13 -20 -16 -20 -2 0 0 9 6 20 6 11 13 20 16 20 2 0 0
-9 -6 -20z m20 -28 c0 -10 -32 -36 -49 -40 -7 -1 -11 5 -9 15 2 10 8 18 15 18
6 0 15 3 19 8 10 9 24 9 24 -1z m85 -34 c4 4 5 -5 1 -20 -4 -17 -2 -28 7 -31
6 -2 9 -7 6 -11 -4 -4 -14 1 -24 10 -12 12 -13 19 -5 24 8 5 7 9 -4 13 -9 4
-16 12 -16 18 0 8 4 9 13 0 8 -6 17 -7 22 -3z m31 -27 c-12 -19 -24 -12 -19
10 4 13 9 17 15 11 6 -6 7 -15 4 -21z m94 19 c0 -5 -7 -10 -15 -10 -8 0 -15 5
-15 10 0 6 7 10 15 10 8 0 15 -4 15 -10z m-304 -95 c3 -17 -12 -20 -21 -5 -3
6 -1 10 5 10 6 0 8 6 4 13 -4 6 -3 8 1 4 5 -4 10 -14 11 -22z m230 -54 c0 -22
-32 -35 -43 -18 -3 7 -3 9 2 5 5 -5 14 1 22 12 17 25 19 25 19 1z m-146 -31
c0 -5 -5 -10 -11 -10 -8 0 -8 -4 0 -14 9 -11 8 -15 -5 -20 -9 -4 -19 -4 -22
-1 -3 3 0 5 6 5 7 0 12 5 12 11 0 8 -5 8 -15 -1 -8 -7 -13 -16 -10 -20 3 -5 1
-11 -5 -15 -5 -3 -10 3 -10 14 0 11 9 25 20 31 11 6 18 15 15 21 -4 5 1 9 9 9
9 0 16 -4 16 -10z m-23 -98 c-14 -17 -22 0 -12 26 5 14 7 14 15 2 5 -9 4 -20
-3 -28z"/>
<path d="M5109 6404 c-1 -5 -1 -12 0 -17 1 -4 -10 -12 -23 -16 -20 -8 -45 -61
-27 -59 19 2 24 -4 11 -12 -11 -7 -12 -10 -2 -10 7 0 20 7 28 15 9 8 12 15 8
15 -4 0 1 7 12 15 10 8 14 15 7 15 -6 0 -18 -7 -26 -15 -8 -8 -17 -12 -20 -9
-7 8 3 35 12 30 3 -2 17 6 31 17 14 12 23 21 21 20 -2 -2 -10 2 -18 8 -7 6
-14 8 -14 3z"/>
<path d="M5264 6335 c-18 -15 -18 -15 0 -8 13 4 17 3 12 -5 -4 -7 -3 -12 3
-12 5 0 9 9 8 20 -1 11 -2 20 -2 20 -1 0 -10 -7 -21 -15z"/>
<path d="M5333 6279 c2 -22 13 -25 20 -5 3 8 0 17 -8 20 -9 3 -13 -2 -12 -15z"/>
<path d="M5183 6530 c4 -14 7 -29 7 -33 0 -5 5 -5 10 -2 6 4 7 12 4 18 -4 7
-3 8 2 4 9 -8 10 -12 13 -38 0 -6 8 -9 16 -5 10 3 15 -1 15 -12 0 -13 2 -14 9
-3 7 11 9 11 14 0 3 -10 8 -11 16 -3 15 14 23 54 10 54 -5 0 -9 -4 -9 -9 0 -5
-14 -8 -30 -7 -28 1 -29 2 -13 15 17 13 17 13 -1 7 -13 -4 -27 1 -44 16 l-25
23 6 -25z"/>
<path d="M5883 6455 c-8 -9 -9 -15 0 -24 17 -17 27 -13 24 9 -4 27 -10 30 -24
15z"/>
<path d="M5510 6456 c0 -2 7 -7 16 -10 8 -3 12 -2 9 4 -6 10 -25 14 -25 6z"/>
<path d="M5335 6430 c-10 -11 -15 -23 -12 -27 4 -3 7 -1 7 6 0 7 9 9 26 5 24
-6 25 -5 15 15 -14 26 -14 26 -36 1z"/>
<path d="M5794 6379 c-9 -10 -21 -16 -25 -13 -5 3 -14 -6 -21 -20 -6 -14 -15
-26 -20 -26 -5 0 -4 -9 2 -19 15 -28 12 -51 -6 -51 -8 0 -12 -5 -9 -10 4 -6 1
-17 -5 -25 -7 -9 -8 -15 -2 -15 5 0 15 7 22 15 7 8 9 15 6 15 -4 0 -1 7 8 15
8 8 25 14 37 13 16 -2 24 3 27 17 4 20 3 20 -11 1 -10 -13 -16 -15 -21 -8 -4
7 -2 12 4 12 6 0 9 4 6 9 -3 5 7 14 22 20 32 13 54 44 46 65 -9 23 -41 26 -60
5z m44 -16 c-2 -9 -10 -19 -18 -21 -13 -5 -13 -3 0 13 9 11 10 16 3 11 -7 -4
-13 -2 -13 3 0 6 7 11 16 11 9 0 14 -7 12 -17z m-40 -15 c-2 -41 -58 -85 -58
-47 0 6 5 7 11 3 6 -3 10 1 9 12 -4 34 0 43 15 38 8 -4 15 -1 15 5 0 6 2 11 4
11 3 0 4 -10 4 -22z"/>
<path d="M5768 6333 c7 -3 16 -2 19 1 4 3 -2 6 -13 5 -11 0 -14 -3 -6 -6z"/>
<path d="M5635 6330 c3 -5 13 -10 21 -10 8 0 14 5 14 10 0 6 -9 10 -21 10 -11
0 -17 -4 -14 -10z"/>
<path d="M4998 6269 c-23 -24 -23 -27 5 -25 12 1 28 -2 34 -7 8 -6 7 2 -3 22
-9 17 -16 31 -17 30 -1 0 -10 -9 -19 -20z m22 -9 c0 -5 -5 -10 -11 -10 -5 0
-7 5 -4 10 3 6 8 10 11 10 2 0 4 -4 4 -10z"/>
<path d="M5604 6269 c-14 -16 -15 -23 -6 -26 6 -3 12 -12 13 -21 0 -11 2 -12
6 -4 2 6 9 12 14 12 4 0 6 -7 3 -15 -4 -8 -1 -15 5 -15 6 0 11 9 11 19 0 11 5
21 11 23 9 3 9 10 0 26 -15 28 -33 28 -57 1z m43 -11 c2 -19 -12 -24 -22 -8
-4 6 -12 7 -18 3 -9 -5 -8 -2 0 8 17 21 39 20 40 -3z"/>
<path d="M5116 6257 c3 -10 9 -15 12 -12 3 3 0 11 -7 18 -10 9 -11 8 -5 -6z"/>
<path d="M5463 6238 c-10 -17 -11 -58 -1 -58 4 0 8 3 9 8 0 4 2 19 4 35 4 30
1 34 -12 15z"/>
<path d="M5374 6214 c0 -9 -5 -18 -12 -20 -7 -1 -8 0 -2 3 15 7 2 23 -21 23
-24 0 -24 -9 -1 -26 9 -7 18 -17 18 -23 1 -6 2 -15 3 -21 2 -16 21 -11 21 6 0
9 -5 12 -12 8 -7 -4 -9 -3 -5 1 13 14 36 14 31 0 -3 -7 0 -16 6 -20 9 -6 9
-10 -1 -17 -11 -7 -11 -11 -1 -15 6 -2 10 -9 6 -14 -3 -5 -1 -9 4 -9 16 0 22
13 11 27 -8 9 -8 13 -1 13 6 0 15 -7 20 -16 6 -11 11 -13 16 -5 4 6 4 11 -1
11 -4 0 -19 9 -32 19 -18 14 -21 20 -11 26 9 5 11 4 6 -3 -4 -7 -2 -12 3 -12
21 0 26 -3 39 -21 13 -19 38 -27 27 -9 -4 6 1 7 12 3 16 -6 17 -5 3 12 -8 10
-10 16 -4 12 7 -4 14 0 18 8 3 8 1 15 -3 15 -5 0 -17 3 -25 6 -12 4 -15 2 -10
-9 3 -8 1 -18 -5 -22 -6 -3 -11 1 -11 10 0 11 -5 15 -15 11 -18 -7 -20 5 -3
22 9 9 9 15 0 24 -9 9 -12 7 -12 -10 0 -23 -7 -26 -33 -16 -9 3 -13 13 -10 25
3 10 1 19 -5 19 -5 0 -9 -7 -8 -16z"/>
<path d="M5400 6210 c0 -5 5 -10 10 -10 6 0 10 5 10 10 0 6 -4 10 -10 10 -5 0
-10 -4 -10 -10z"/>
<path d="M5490 6210 c11 -7 11 -10 2 -10 -7 0 -10 -5 -7 -11 4 -6 13 -8 21 -5
21 8 29 -21 13 -41 -12 -15 -12 -16 5 -10 16 6 17 5 6 -8 -11 -13 -10 -14 3
-9 9 3 24 0 34 -6 17 -11 17 -11 -1 -5 -11 3 -23 0 -27 -7 -6 -9 -11 -8 -25 3
-15 12 -18 11 -32 -9 -8 -12 -19 -22 -25 -22 -7 0 -7 4 1 12 16 16 15 33 0 20
-7 -6 -16 -11 -21 -11 -4 0 -15 -4 -24 -10 -15 -8 -15 -13 -5 -35 10 -22 9
-28 -4 -33 -9 -3 -20 0 -24 7 -5 8 -9 9 -14 1 -4 -6 -3 -11 2 -11 5 0 12 -9
15 -20 7 -28 2 -25 -22 13 -14 22 -21 26 -21 15 0 -25 36 -59 55 -52 8 4 15
10 15 16 0 5 -5 6 -12 2 -7 -4 -8 -3 -4 5 10 16 26 4 26 -20 0 -10 6 -19 14
-19 8 0 18 -5 22 -12 5 -8 2 -9 -9 -5 -17 6 -23 -4 -10 -16 8 -9 43 22 43 37
0 6 -4 5 -9 -3 -6 -9 -11 -10 -15 -2 -4 6 0 19 9 28 13 13 21 14 35 5 14 -8
22 -7 38 9 22 19 68 27 57 9 -3 -5 -1 -10 4 -10 15 0 14 13 -1 29 -7 8 -8 11
-2 8 14 -8 48 28 39 42 -3 6 -3 11 2 11 4 0 17 13 28 28 l20 27 -27 -17 c-30
-19 -53 -24 -43 -9 8 14 -30 32 -49 25 -15 -6 -21 6 -17 30 2 11 -47 56 -62
56 -7 0 -6 -4 3 -10z m105 -91 c11 -16 1 -19 -13 -3 -7 8 -8 14 -3 14 5 0 13
-5 16 -11z m-50 -29 c12 10 15 10 15 -3 0 -21 -29 -30 -48 -15 -12 10 -14 10
-8 1 4 -8 1 -13 -9 -13 -13 0 -14 4 -5 21 9 16 14 18 26 8 11 -9 17 -9 29 1z
m-105 -4 c0 -2 -8 -10 -17 -17 -16 -13 -17 -12 -4 4 13 16 21 21 21 13z m144
-7 c-4 -7 0 -9 14 -5 24 8 41 -12 21 -25 -8 -4 -16 -3 -20 3 -4 6 -12 7 -18 4
-7 -5 -11 1 -11 13 0 12 5 21 11 21 5 0 7 -5 3 -11z m-149 -29 c-3 -5 1 -10
10 -10 10 0 13 5 9 12 -4 7 -3 8 5 4 6 -4 9 -11 6 -16 -3 -4 2 -11 11 -14 11
-4 15 -2 11 6 -5 14 33 21 71 12 22 -4 22 -24 1 -24 -6 0 -7 5 -4 10 4 6 -5
10 -20 10 -15 0 -24 -4 -20 -10 4 -6 11 -8 16 -5 5 4 9 2 9 -3 0 -6 -7 -13
-16 -16 -9 -3 -12 -11 -8 -18 5 -10 4 -10 -7 0 -12 11 -12 14 1 22 8 5 10 10
5 10 -6 0 -16 -5 -23 -12 -9 -9 -12 -9 -12 1 0 8 -6 11 -16 7 -10 -4 -13 -2
-9 7 4 6 0 4 -8 -6 -14 -16 -15 -16 -19 8 -3 13 -3 27 0 30 9 9 14 6 7 -5z
m25 -64 c0 -2 -7 -7 -16 -10 -8 -3 -12 -2 -9 4 6 10 25 14 25 6z"/>
<path d="M4965 6190 c-3 -5 -1 -10 4 -10 6 0 11 5 11 10 0 6 -2 10 -4 10 -3 0
-8 -4 -11 -10z"/>
<path d="M5572 6188 c-13 -13 -16 -38 -4 -38 4 0 12 11 19 25 12 27 5 33 -15
13z"/>
<path d="M5590 6166 c0 -23 16 -27 17 -5 1 10 -2 19 -8 19 -5 0 -9 -6 -9 -14z"/>
<path d="M5230 6100 c0 -5 5 -10 10 -10 7 0 7 -6 0 -20 -6 -11 -17 -20 -25
-20 -8 0 -15 -5 -15 -11 0 -5 5 -7 12 -3 8 5 9 2 5 -10 -4 -10 -3 -15 3 -11 6
3 10 13 10 20 0 8 9 19 20 25 24 13 28 -5 4 -18 -10 -6 -14 -14 -9 -22 5 -8
12 -3 22 18 13 27 13 32 -3 51 -20 23 -34 27 -34 11z"/>
<path d="M5660 6090 c0 -5 7 -7 15 -4 8 4 15 8 15 10 0 2 -7 4 -15 4 -8 0 -15
-4 -15 -10z"/>
<path d="M5070 6065 c-17 -21 -9 -27 13 -10 10 7 14 16 9 19 -5 3 -15 -1 -22
-9z"/>
<path d="M4964 6032 c-18 -12 -23 -40 -10 -51 17 -14 29 -2 15 15 -7 8 -6 14
2 20 8 5 9 3 4 -6 -5 -8 -4 -11 3 -6 6 4 9 13 5 21 -6 17 -5 17 -19 7z"/>
<path d="M4904 6015 c1 -9 11 -26 22 -38 10 -12 24 -30 30 -40 10 -17 13 -15
35 17 13 20 28 36 32 36 5 0 5 -4 2 -10 -3 -5 1 -10 9 -10 10 0 13 6 10 15 -4
8 -12 15 -20 15 -8 0 -14 5 -14 11 0 5 5 7 12 3 7 -5 8 -3 3 6 -6 10 -11 9
-21 -5 -7 -10 -11 -22 -8 -26 3 -5 1 -9 -5 -9 -5 0 -13 -10 -17 -22 l-7 -23
-8 23 c-5 12 -13 22 -20 22 -7 0 -9 10 -4 28 6 26 6 26 -9 7 -13 -16 -15 -17
-10 -2 3 9 2 17 -4 17 -6 0 -9 -7 -8 -15z"/>
<path d="M5225 5972 c-6 -4 -10 -14 -10 -22 1 -8 -2 -25 -7 -37 -8 -23 5 -39
22 -28 8 5 7 11 -1 21 -10 12 -8 13 7 8 16 -6 17 -5 7 7 -7 7 -13 17 -13 22 0
4 6 5 13 1 9 -6 9 -5 0 8 -7 8 -10 18 -6 21 9 9 1 9 -12 -1z"/>
<path d="M5586 5968 c3 -5 10 -6 15 -3 13 9 11 12 -6 12 -8 0 -12 -4 -9 -9z"/>
<path d="M5111 5936 c-6 -7 -8 -16 -4 -20 11 -11 12 -38 2 -57 -6 -12 -5 -20
3 -25 6 -4 8 -3 5 3 -4 6 -1 16 7 22 11 9 15 9 19 -1 2 -7 8 -9 13 -5 5 5 1
15 -10 23 -19 13 -19 14 5 14 33 0 52 14 47 35 -4 23 -71 31 -87 11z m34 -7
c-4 -6 0 -9 10 -7 10 2 20 -4 22 -12 4 -12 3 -12 -5 -1 -7 9 -11 10 -17 2 -5
-9 -10 -9 -21 0 -12 10 -12 14 -2 20 17 12 20 11 13 -2z"/>
<path d="M5195 5860 c-3 -5 -1 -10 4 -10 6 0 11 -7 11 -16 0 -8 5 -12 10 -9 8
5 8 11 0 20 -8 10 -7 14 2 18 9 4 7 6 -4 6 -9 1 -20 -3 -23 -9z"/>
<path d="M5025 5790 c-3 -5 -1 -10 4 -10 6 0 11 5 11 10 0 6 -2 10 -4 10 -3 0
-8 -4 -11 -10z"/>
<path d="M5047 5781 c-3 -13 2 -25 17 -36 11 -9 14 -14 6 -12 -10 3 -15 -3
-16 -19 -1 -14 4 -24 12 -24 8 0 11 6 8 15 -4 10 -1 14 7 12 8 -2 11 -2 7 0
-4 2 -5 10 -2 18 3 8 -4 16 -17 20 -13 4 -17 10 -11 14 6 4 7 12 3 20 -6 9
-10 8 -14 -8z"/>
<path d="M5110 5706 c0 -2 7 -7 16 -10 8 -3 12 -2 9 4 -6 10 -25 14 -25 6z"/>
<path d="M5076 5684 c-11 -7 -16 -17 -13 -21 4 -4 15 1 24 10 22 21 14 30 -11
11z"/>
<path d="M4730 5500 c-8 -5 -10 -10 -5 -10 6 0 17 5 25 10 8 5 11 10 5 10 -5
0 -17 -5 -25 -10z"/>
<path d="M4850 5641 c0 -5 5 -13 10 -16 6 -3 10 -2 10 4 0 5 -4 13 -10 16 -5
3 -10 2 -10 -4z"/>
<path d="M4747 5603 c-12 -12 -7 -22 8 -17 8 4 15 10 15 15 0 11 -14 12 -23 2z"/>
<path d="M7231 3852 c-134 -68 -85 -272 66 -272 114 0 180 100 135 204 -34 76
-126 107 -201 68z"/>
<path d="M4900 3163 l0 -693 114 0 114 0 5 293 c4 318 8 345 60 404 45 51 98
73 180 73 72 0 108 -13 143 -52 40 -44 44 -78 44 -404 l0 -314 115 0 115 0 0
348 c0 289 -3 357 -16 402 -30 101 -83 162 -184 209 -48 23 -68 26 -155 26
-127 0 -182 -23 -255 -102 l-50 -55 0 279 0 278 -115 0 -115 0 0 -692z"/>
<path d="M1750 3155 l0 -685 420 0 420 0 0 110 0 110 -300 0 -300 0 0 180 0
180 270 0 270 0 0 110 0 110 -270 0 -270 0 0 175 0 175 290 0 290 0 0 110 0
110 -410 0 -410 0 0 -685z"/>
<path d="M3076 3444 c-265 -64 -412 -318 -356 -615 15 -79 60 -167 118 -230
170 -186 505 -201 678 -31 43 43 104 135 104 158 0 6 -43 27 -95 46 l-95 36
-19 -32 c-69 -111 -202 -149 -319 -90 -98 49 -142 133 -142 270 0 140 54 235
156 273 112 42 217 18 280 -66 18 -23 34 -47 36 -53 2 -6 39 1 101 20 112 35
116 42 68 125 -59 102 -152 169 -269 194 -70 15 -173 13 -246 -5z"/>
<path d="M4102 3449 c-60 -12 -147 -53 -208 -99 -207 -156 -232 -535 -49 -738
87 -97 201 -149 345 -159 306 -19 540 197 540 499 0 77 -29 198 -62 260 -34
64 -110 141 -179 181 -95 56 -265 80 -387 56z m209 -215 c110 -33 179 -142
179 -285 0 -98 -28 -166 -91 -223 -61 -55 -110 -70 -201 -64 -159 12 -250 136
-235 322 6 83 25 131 68 181 69 78 167 102 280 69z"/>
<path d="M6322 3445 c-181 -51 -300 -171 -343 -345 -20 -82 -15 -242 9 -317
69 -217 273 -347 516 -330 278 20 466 222 466 502 0 233 -115 401 -326 476
-79 28 -247 35 -322 14z m235 -210 c127 -38 202 -187 173 -348 -30 -169 -166
-256 -338 -217 -46 10 -65 21 -108 65 -61 60 -84 122 -84 221 0 212 161 337
357 279z"/>
<path d="M7904 3450 c-106 -21 -192 -93 -245 -204 l-29 -61 92 -44 c51 -23 94
-39 95 -34 10 30 73 111 101 130 62 41 175 42 240 2 40 -24 64 -77 60 -132
l-3 -42 -150 -17 c-82 -9 -176 -22 -208 -28 -177 -34 -267 -125 -267 -270 0
-85 22 -148 70 -203 61 -69 122 -91 250 -92 93 0 111 3 160 26 51 25 140 101
140 121 0 4 3 8 8 8 4 0 6 -31 4 -70 l-4 -70 121 0 121 0 0 333 c0 425 -9 475
-97 558 -48 46 -85 65 -165 84 -67 16 -226 18 -294 5z m317 -594 c-4 -71 -27
-121 -74 -161 -51 -44 -102 -58 -190 -53 -63 3 -72 7 -98 36 -35 39 -38 82 -9
129 32 53 103 79 250 93 130 12 125 13 121 -44z"/>
<path d="M7180 2925 c0 -431 -2 -520 -15 -563 -18 -61 -49 -82 -119 -82 -50 0
-47 6 -61 -142 l-7 -68 109 3 c121 3 151 13 216 76 48 45 73 92 92 173 12 51
15 160 15 590 l0 526 -115 -1 -115 -1 0 -511z"/>
</g>
</svg>
